<?xml version="1.0" encoding="UTF-8" standalone="no"?>
<!-- Created with Inkscape (http://www.inkscape.org/) -->

<svg
   xmlns:dc="http://purl.org/dc/elements/1.1/"
   xmlns:cc="http://creativecommons.org/ns#"
   xmlns:rdf="http://www.w3.org/1999/02/22-rdf-syntax-ns#"
   xmlns:svg="http://www.w3.org/2000/svg"
   xmlns="http://www.w3.org/2000/svg"
   xmlns:sodipodi="http://sodipodi.sourceforge.net/DTD/sodipodi-0.dtd"
   xmlns:inkscape="http://www.inkscape.org/namespaces/inkscape"
   version="1.1"
   width="525"
   height="125"
   id="svg2905"
   inkscape:version="0.47 r22583"
   sodipodi:docname="Printf000.svg"
   inkscape:output_extension="org.inkscape.output.svg.inkscape"
   style="display:inline">
  <metadata
     id="metadata120">
    <rdf:RDF>
      <cc:Work
         rdf:about="">
        <dc:format>image/svg+xml</dc:format>
        <dc:type
           rdf:resource="http://purl.org/dc/dcmitype/StillImage" />
        <dc:title></dc:title>
      </cc:Work>
    </rdf:RDF>
  </metadata>
  <sodipodi:namedview
     pagecolor="#ffffff"
     bordercolor="#666666"
     borderopacity="1"
     objecttolerance="10"
     gridtolerance="10"
     guidetolerance="10"
     inkscape:pageopacity="0"
     inkscape:pageshadow="2"
     inkscape:window-width="1597"
     inkscape:window-height="756"
     id="namedview118"
     showgrid="false"
     inkscape:zoom="1.7940592"
     inkscape:cx="296.62717"
     inkscape:cy="79.760996"
     inkscape:window-x="18"
     inkscape:window-y="46"
     inkscape:window-maximized="0"
     inkscape:current-layer="layer7"
     showguides="true"
     inkscape:guide-bbox="true" />
  <defs
     id="defs2931">
    <inkscape:perspective
       sodipodi:type="inkscape:persp3d"
       inkscape:vp_x="0 : 0.5 : 1"
       inkscape:vp_y="0 : 1000 : 0"
       inkscape:vp_z="1 : 0.5 : 1"
       inkscape:persp3d-origin="0.5 : 0.33333333 : 1"
       id="perspective122" />
    <marker
       refX="0"
       refY="0"
       orient="auto"
       id="Arrow1Mend"
       style="overflow:visible">
      <path
         d="M 0,0 5,-5 -12.5,0 5,5 0,0 z"
         transform="matrix(-0.4,0,0,-0.4,-4,0)"
         id="path3723"
         style="fill-rule:evenodd;stroke:#000000;stroke-width:1pt;marker-start:none"
         inkscape:connector-curvature="0" />
    </marker>
    <marker
       refX="0"
       refY="0"
       orient="auto"
       id="Arrow1Mend-1"
       style="overflow:visible">
      <path
         d="M 0,0 5,-5 -12.5,0 5,5 0,0 z"
         transform="matrix(-0.4,0,0,-0.4,-4,0)"
         id="path3723-3"
         style="fill-rule:evenodd;stroke:#000000;stroke-width:1pt;marker-start:none"
         inkscape:connector-curvature="0" />
    </marker>
    <marker
       refX="0"
       refY="0"
       orient="auto"
       id="marker4424"
       style="overflow:visible">
      <path
         d="M 0,0 5,-5 -12.5,0 5,5 0,0 z"
         transform="matrix(-0.4,0,0,-0.4,-4,0)"
         id="path4426"
         style="fill-rule:evenodd;stroke:#000000;stroke-width:1pt;marker-start:none"
         inkscape:connector-curvature="0" />
    </marker>
    <marker
       refX="0"
       refY="0"
       orient="auto"
       id="marker4428"
       style="overflow:visible">
      <path
         d="M 0,0 5,-5 -12.5,0 5,5 0,0 z"
         transform="matrix(-0.4,0,0,-0.4,-4,0)"
         id="path4430"
         style="fill-rule:evenodd;stroke:#000000;stroke-width:1pt;marker-start:none"
         inkscape:connector-curvature="0" />
    </marker>
    <marker
       refX="0"
       refY="0"
       orient="auto"
       id="marker4432"
       style="overflow:visible">
      <path
         d="M 0,0 5,-5 -12.5,0 5,5 0,0 z"
         transform="matrix(-0.4,0,0,-0.4,-4,0)"
         id="path4434"
         style="fill-rule:evenodd;stroke:#000000;stroke-width:1pt;marker-start:none"
         inkscape:connector-curvature="0" />
    </marker>
    <marker
       refX="0"
       refY="0"
       orient="auto"
       id="marker4436"
       style="overflow:visible">
      <path
         d="M 0,0 5,-5 -12.5,0 5,5 0,0 z"
         transform="matrix(-0.4,0,0,-0.4,-4,0)"
         id="path4438"
         style="fill-rule:evenodd;stroke:#000000;stroke-width:1pt;marker-start:none"
         inkscape:connector-curvature="0" />
    </marker>
    <marker
       refX="0"
       refY="0"
       orient="auto"
       id="marker4440"
       style="overflow:visible">
      <path
         d="M 0,0 5,-5 -12.5,0 5,5 0,0 z"
         transform="matrix(-0.4,0,0,-0.4,-4,0)"
         id="path4442"
         style="fill-rule:evenodd;stroke:#000000;stroke-width:1pt;marker-start:none"
         inkscape:connector-curvature="0" />
    </marker>
    <marker
       refX="0"
       refY="0"
       orient="auto"
       id="marker4444"
       style="overflow:visible">
      <path
         d="M 0,0 5,-5 -12.5,0 5,5 0,0 z"
         transform="matrix(-0.4,0,0,-0.4,-4,0)"
         id="path4446"
         style="fill-rule:evenodd;stroke:#000000;stroke-width:1pt;marker-start:none"
         inkscape:connector-curvature="0" />
    </marker>
    <marker
       refX="0"
       refY="0"
       orient="auto"
       id="marker4448"
       style="overflow:visible">
      <path
         d="M 0,0 5,-5 -12.5,0 5,5 0,0 z"
         transform="matrix(-0.4,0,0,-0.4,-4,0)"
         id="path4450"
         style="fill-rule:evenodd;stroke:#000000;stroke-width:1pt;marker-start:none"
         inkscape:connector-curvature="0" />
    </marker>
    <marker
       refX="0"
       refY="0"
       orient="auto"
       id="marker4452"
       style="overflow:visible">
      <path
         d="M 0,0 5,-5 -12.5,0 5,5 0,0 z"
         transform="matrix(-0.4,0,0,-0.4,-4,0)"
         id="path4454"
         style="fill-rule:evenodd;stroke:#000000;stroke-width:1pt;marker-start:none"
         inkscape:connector-curvature="0" />
    </marker>
    <marker
       refX="0"
       refY="0"
       orient="auto"
       id="Arrow1Mend-9"
       style="overflow:visible">
      <path
         d="M 0,0 5,-5 -12.5,0 5,5 0,0 z"
         transform="matrix(-0.4,0,0,-0.4,-4,0)"
         id="path3723-6"
         style="fill-rule:evenodd;stroke:#000000;stroke-width:1pt;marker-start:none"
         inkscape:connector-curvature="0" />
    </marker>
    <marker
       refX="0"
       refY="0"
       orient="auto"
       id="marker4540"
       style="overflow:visible">
      <path
         d="M 0,0 5,-5 -12.5,0 5,5 0,0 z"
         transform="matrix(-0.4,0,0,-0.4,-4,0)"
         id="path4542"
         style="fill-rule:evenodd;stroke:#000000;stroke-width:1pt;marker-start:none"
         inkscape:connector-curvature="0" />
    </marker>
    <marker
       refX="0"
       refY="0"
       orient="auto"
       id="marker4544"
       style="overflow:visible">
      <path
         d="M 0,0 5,-5 -12.5,0 5,5 0,0 z"
         transform="matrix(-0.4,0,0,-0.4,-4,0)"
         id="path4546"
         style="fill-rule:evenodd;stroke:#000000;stroke-width:1pt;marker-start:none"
         inkscape:connector-curvature="0" />
    </marker>
    <marker
       refX="0"
       refY="0"
       orient="auto"
       id="marker4548"
       style="overflow:visible">
      <path
         d="M 0,0 5,-5 -12.5,0 5,5 0,0 z"
         transform="matrix(-0.4,0,0,-0.4,-4,0)"
         id="path4550"
         style="fill-rule:evenodd;stroke:#000000;stroke-width:1pt;marker-start:none"
         inkscape:connector-curvature="0" />
    </marker>
    <marker
       refX="0"
       refY="0"
       orient="auto"
       id="marker4552"
       style="overflow:visible">
      <path
         d="M 0,0 5,-5 -12.5,0 5,5 0,0 z"
         transform="matrix(-0.4,0,0,-0.4,-4,0)"
         id="path4554"
         style="fill-rule:evenodd;stroke:#000000;stroke-width:1pt;marker-start:none"
         inkscape:connector-curvature="0" />
    </marker>
    <marker
       refX="0"
       refY="0"
       orient="auto"
       id="marker4556"
       style="overflow:visible">
      <path
         d="M 0,0 5,-5 -12.5,0 5,5 0,0 z"
         transform="matrix(-0.4,0,0,-0.4,-4,0)"
         id="path4558"
         style="fill-rule:evenodd;stroke:#000000;stroke-width:1pt;marker-start:none"
         inkscape:connector-curvature="0" />
    </marker>
    <marker
       refX="0"
       refY="0"
       orient="auto"
       id="marker4560"
       style="overflow:visible">
      <path
         d="M 0,0 5,-5 -12.5,0 5,5 0,0 z"
         transform="matrix(-0.4,0,0,-0.4,-4,0)"
         id="path4562"
         style="fill-rule:evenodd;stroke:#000000;stroke-width:1pt;marker-start:none"
         inkscape:connector-curvature="0" />
    </marker>
    <marker
       refX="0"
       refY="0"
       orient="auto"
       id="marker4564"
       style="overflow:visible">
      <path
         d="M 0,0 5,-5 -12.5,0 5,5 0,0 z"
         transform="matrix(-0.4,0,0,-0.4,-4,0)"
         id="path4566"
         style="fill-rule:evenodd;stroke:#000000;stroke-width:1pt;marker-start:none"
         inkscape:connector-curvature="0" />
    </marker>
    <marker
       refX="0"
       refY="0"
       orient="auto"
       id="marker4568"
       style="overflow:visible">
      <path
         d="M 0,0 5,-5 -12.5,0 5,5 0,0 z"
         transform="matrix(-0.4,0,0,-0.4,-4,0)"
         id="path4570"
         style="fill-rule:evenodd;stroke:#000000;stroke-width:1pt;marker-start:none"
         inkscape:connector-curvature="0" />
    </marker>
  </defs>
  <g
     inkscape:groupmode="layer"
     id="layer1"
     inkscape:label="original"
     style="display:none">
    <g
       inkscape:groupmode="layer"
       id="layer3"
       inkscape:label="text (path)"
       style="display:none">
      <g
         style="display:inline"
         id="text2907"
         transform="translate(-0.597656,12.5039)">
        <path
           d="m 11.101563,41.251953 2.255859,0 0,8.748047 -2.255859,0 0,-8.748047"
           id="path5812"
           style="font-weight:bold"
           inkscape:connector-curvature="0" />
        <path
           d="m 22.058594,46.003906 0,3.996094 -2.109375,0 0,-0.650391 0,-2.408203 c -6e-6,-0.566402 -0.01368,-0.957027 -0.04102,-1.171875 -0.02344,-0.214839 -0.06641,-0.373042 -0.128906,-0.474609 -0.08204,-0.136714 -0.193365,-0.242183 -0.333985,-0.316406 -0.140629,-0.07812 -0.300785,-0.117183 -0.480468,-0.117188 -0.437504,5e-6 -0.781254,0.169927 -1.03125,0.509766 -0.250003,0.335942 -0.375003,0.802738 -0.375,1.40039 l 0,3.228516 -2.097656,0 0,-6.5625 2.097656,0 0,0.960937 c 0.316403,-0.382806 0.65234,-0.664056 1.007812,-0.84375 0.355465,-0.183587 0.748042,-0.275383 1.177735,-0.27539 0.757806,7e-6 1.332024,0.232428 1.722656,0.697265 0.394524,0.46485 0.591789,1.14063 0.591797,2.027344"
           id="path5814"
           style="font-weight:bold"
           inkscape:connector-curvature="0" />
        <path
           d="m 26.113281,49.050781 0,3.445313 -2.097656,0 0,-9.058594 2.097656,0 0,0.960937 c 0.289059,-0.382806 0.609372,-0.664056 0.960938,-0.84375 0.351558,-0.183587 0.755854,-0.275383 1.21289,-0.27539 0.808588,7e-6 1.47265,0.322272 1.992188,0.966797 0.519523,0.64063 0.779289,1.466801 0.779297,2.478515 -8e-6,1.011721 -0.259774,1.839846 -0.779297,2.484375 -0.519538,0.640626 -1.1836,0.960938 -1.992188,0.960938 -0.457036,0 -0.861332,-0.08984 -1.21289,-0.269531 -0.351566,-0.183594 -0.671879,-0.466797 -0.960938,-0.84961 m 1.394531,-4.248047 c -0.449222,6e-6 -0.794925,0.166021 -1.037109,0.498047 -0.238284,0.32813 -0.357425,0.802739 -0.357422,1.423828 -3e-6,0.621097 0.119138,1.097659 0.357422,1.429688 0.242184,0.328126 0.587887,0.492189 1.037109,0.492187 0.449214,2e-6 0.791011,-0.164061 1.025391,-0.492187 0.238276,-0.328123 0.357416,-0.804685 0.357422,-1.429688 -6e-6,-0.624996 -0.119146,-1.101558 -0.357422,-1.429687 -0.23438,-0.32812 -0.576177,-0.492182 -1.025391,-0.492188"
           id="path5816"
           style="font-weight:bold"
           inkscape:connector-curvature="0" />
        <path
           d="m 32.546875,47.445312 0,-4.007812 2.109375,0 0,0.65625 c -3e-6,0.355474 -0.002,0.802739 -0.0059,1.341797 -0.0039,0.53516 -0.0059,0.892582 -0.0059,1.072265 -3e-6,0.527347 0.01367,0.908206 0.04102,1.142579 0.02734,0.23047 0.07422,0.398439 0.140625,0.503906 0.08593,0.13672 0.197262,0.242189 0.333984,0.316406 0.140622,0.07422 0.300778,0.11133 0.480469,0.111328 0.437496,2e-6 0.781245,-0.167967 1.03125,-0.503906 0.249995,-0.335935 0.374995,-0.802732 0.375,-1.400391 l 0,-3.240234 2.097656,0 0,6.5625 -2.097656,0 0,-0.949219 c -0.316411,0.382813 -0.652349,0.666016 -1.007813,0.84961 -0.351566,0.179687 -0.740238,0.269531 -1.166015,0.269531 -0.757815,0 -1.33594,-0.232422 -1.734375,-0.697266 -0.394533,-0.464843 -0.591798,-1.140623 -0.591797,-2.027344"
           id="path5818"
           style="font-weight:bold"
           inkscape:connector-curvature="0" />
        <path
           d="m 43.462891,41.574219 0,1.863281 2.162109,0 0,1.5 -2.162109,0 0,2.783203 c -4e-6,0.30469 0.06054,0.511721 0.18164,0.621094 0.12109,0.10547 0.361325,0.158205 0.720703,0.158203 l 1.078125,0 0,1.5 -1.798828,0 C 42.816404,50 42.228514,49.828125 41.880859,49.484375 41.537108,49.13672 41.365233,48.54883 41.365234,47.720703 l 0,-2.783203 -1.042968,0 0,-1.5 1.042968,0 0,-1.863281 2.097657,0"
           id="path5820"
           style="font-weight:bold"
           inkscape:connector-curvature="0" />
        <path
           d="m 47.248047,43.4375 2.115234,0 0,2.267578 -2.115234,0 0,-2.267578 m 0,4.294922 2.115234,0 0,2.267578 -2.115234,0 0,-2.267578"
           id="path5822"
           style="font-weight:bold"
           inkscape:connector-curvature="0" />
        <path
           d="m 50.6875,50 0,0"
           id="path5824"
           style="font-weight:bold"
           inkscape:connector-curvature="0" />
        <path
           d="m 58.884766,49.173828 0,3.322266 -1.083985,0 0,-9.058594 1.083985,0 0,0.837891 c 0.179685,-0.324213 0.417966,-0.570307 0.714843,-0.738282 0.300778,-0.171868 0.646481,-0.257805 1.03711,-0.257812 0.792964,7e-6 1.414057,0.306647 1.863281,0.919922 0.453119,0.613286 0.679681,1.462895 0.679687,2.548828 -6e-6,1.066408 -0.226568,1.904298 -0.679687,2.513672 -0.45313,0.605469 -1.074223,0.908203 -1.863281,0.908203 -0.398441,0 -0.74805,-0.08398 -1.048828,-0.251953 -0.296878,-0.171875 -0.531253,-0.419922 -0.703125,-0.744141 m 3.164062,-2.449219 c -5e-6,-0.835933 -0.132818,-1.466792 -0.398437,-1.892578 -0.261724,-0.425775 -0.652348,-0.638666 -1.171875,-0.638672 -0.523441,6e-6 -0.919925,0.21485 -1.189454,0.644532 -0.269533,0.425786 -0.404299,1.054691 -0.404296,1.886718 -3e-6,0.828128 0.134763,1.457033 0.404296,1.886719 0.269529,0.429689 0.666013,0.644532 1.189454,0.644531 0.519527,10e-7 0.910151,-0.212889 1.171875,-0.638672 0.265619,-0.425779 0.398432,-1.056638 0.398437,-1.892578"
           id="path5826"
           style="fill:#000080"
           inkscape:connector-curvature="0" />
        <path
           d="m 70.673828,44.791016 c -0.230475,-0.179682 -0.46485,-0.310542 -0.703125,-0.392579 -0.238287,-0.08203 -0.500005,-0.123041 -0.785156,-0.123046 -0.67188,5e-6 -1.185551,0.210943 -1.541016,0.632812 -0.355472,0.42188 -0.533206,1.031254 -0.533203,1.828125 l 0,3.263672 -1.083984,0 0,-6.5625 1.083984,0 0,1.283203 c 0.179684,-0.464838 0.455075,-0.820306 0.826172,-1.066406 0.374996,-0.249994 0.818355,-0.374993 1.330078,-0.375 0.265619,7e-6 0.513666,0.03321 0.744141,0.09961 0.230462,0.06641 0.451165,0.169929 0.662109,0.310547 l 0,1.101563"
           id="path5828"
           style="fill:#000080"
           inkscape:connector-curvature="0" />
        <path
           d="m 72.625,43.4375 2.759766,0 0,5.724609 2.138671,0 0,0.837891 -5.355468,0 0,-0.837891 2.138672,0 0,-4.886718 -1.681641,0 0,-0.837891 m 1.681641,-2.554688 1.078125,0 0,1.365235 -1.078125,0 0,-1.365235"
           id="path5830"
           style="fill:#000080"
           inkscape:connector-curvature="0" />
        <path
           d="m 84.501953,45.933594 0,4.066406 -1.083984,0 0,-4.066406 c -5e-6,-0.589839 -0.103521,-1.023433 -0.310547,-1.300782 -0.207036,-0.277338 -0.531254,-0.416009 -0.972656,-0.416015 -0.50391,6e-6 -0.892581,0.179693 -1.166016,0.539062 -0.269534,0.355474 -0.404299,0.867192 -0.404297,1.535157 l 0,3.708984 -1.078125,0 0,-6.5625 1.078125,0 0,0.984375 c 0.191404,-0.374994 0.451169,-0.658197 0.779297,-0.849609 0.328122,-0.195306 0.716793,-0.292962 1.166016,-0.292969 0.667964,7e-6 1.16601,0.220709 1.49414,0.662109 0.332026,0.437506 0.498041,1.101568 0.498047,1.992188"
           id="path5832"
           style="fill:#000080"
           inkscape:connector-curvature="0" />
        <path
           d="m 89.160156,41.574219 0,1.863281 2.449219,0 0,0.837891 -2.449219,0 0,3.5625 c -3e-6,0.484376 0.09179,0.822267 0.275391,1.013671 0.18359,0.191408 0.503902,0.287111 0.960937,0.28711 l 1.212891,0 0,0.861328 -1.318359,0 c -0.808598,0 -1.37891,-0.162109 -1.710938,-0.486328 -0.332034,-0.324218 -0.498049,-0.882811 -0.498047,-1.675781 l 0,-3.5625 -1.751953,0 0,-0.837891 1.751953,0 0,-1.863281 1.078125,0"
           id="path5834"
           style="fill:#000080"
           inkscape:connector-curvature="0" />
        <path
           d="m 99.009766,40.882812 0,0.896485 -1.22461,0 c -0.386723,8e-6 -0.656254,0.08009 -0.808594,0.240234 -0.148441,0.156258 -0.22266,0.435555 -0.222656,0.837891 l 0,0.580078 2.25586,0 0,0.837891 -2.25586,0 0,5.724609 -1.078125,0 0,-5.724609 -1.751953,0 0,-0.837891 1.751953,0 0,-0.457031 c -3e-6,-0.718743 0.16406,-1.248039 0.492188,-1.587891 0.332027,-0.339835 0.847652,-0.509756 1.546875,-0.509766 l 1.294922,0"
           id="path5836"
           style="fill:#000080"
           inkscape:connector-curvature="0" />
        <path
           d="m 105.18555,40.894531 c -0.51954,0.890633 -0.90821,1.779304 -1.16602,2.666016 -0.25391,0.882818 -0.38086,1.773442 -0.38086,2.671875 0,0.894534 0.12695,1.785158 0.38086,2.671875 0.25781,0.886719 0.64648,1.779296 1.16602,2.677734 l -0.9375,0 c -0.58985,-0.929688 -1.0293,-1.833984 -1.31836,-2.71289 -0.28907,-0.882811 -0.4336,-1.761716 -0.4336,-2.636719 0,-0.871089 0.14453,-1.748041 0.4336,-2.63086 0.28906,-0.882805 0.72851,-1.785148 1.31836,-2.707031 l 0.9375,0"
           id="path5838"
           style="fill:#008000"
           inkscape:connector-curvature="0" />
        <path
           d="m 113.50586,49.689453 c -0.30079,0.160157 -0.60938,0.279297 -0.92578,0.357422 -0.31641,0.08203 -0.65235,0.123047 -1.00781,0.123047 -1.1211,0 -1.99219,-0.396484 -2.61329,-1.189453 -0.61718,-0.792967 -0.92578,-1.9082 -0.92578,-3.345703 0,-1.429682 0.31055,-2.542962 0.93164,-3.339844 0.625,-0.800773 1.49414,-1.201163 2.60743,-1.201172 0.35546,9e-6 0.6914,0.04102 1.00781,0.123047 0.3164,0.07813 0.62499,0.197274 0.92578,0.357422 l 0,1.21289 c -0.28907,-0.238273 -0.59962,-0.419914 -0.93164,-0.544922 -0.33204,-0.124992 -0.66602,-0.187492 -1.00195,-0.1875 -0.76954,8e-6 -1.34571,0.296883 -1.72852,0.890625 -0.38281,0.593757 -0.57422,1.49024 -0.57422,2.689454 0,1.195315 0.19141,2.089846 0.57422,2.683593 0.38281,0.593751 0.95898,0.890626 1.72852,0.890625 0.34374,10e-7 0.67968,-0.0625 1.00781,-0.1875 0.33202,-0.124999 0.64062,-0.306639 0.92578,-0.544922 l 0,1.212891"
           id="path5840"
           style="fill:#800000"
           inkscape:connector-curvature="0" />
        <path
           d="m 118.04688,44.193359 c -0.54688,6e-6 -0.96095,0.212897 -1.24219,0.638672 -0.28125,0.425786 -0.42188,1.056645 -0.42188,1.892578 0,0.832034 0.14063,1.462893 0.42188,1.892578 0.28124,0.425783 0.69531,0.638673 1.24219,0.638672 0.55077,10e-7 0.96679,-0.212889 1.24804,-0.638672 0.28125,-0.429685 0.42187,-1.060544 0.42188,-1.892578 -1e-5,-0.835933 -0.14063,-1.466792 -0.42188,-1.892578 -0.28125,-0.425775 -0.69727,-0.638666 -1.24804,-0.638672 m 0,-0.914062 c 0.91015,7e-6 1.60546,0.294928 2.08593,0.884765 0.48437,0.589849 0.72656,1.443364 0.72657,2.560547 -1e-5,1.121096 -0.24025,1.976564 -0.72071,2.566407 -0.48047,0.585937 -1.17774,0.878906 -2.09179,0.878906 -0.91016,0 -1.60548,-0.292969 -2.08594,-0.878906 -0.48047,-0.589843 -0.72071,-1.445311 -0.72071,-2.566407 0,-1.117183 0.24024,-1.970698 0.72071,-2.560547 0.48046,-0.589837 1.17578,-0.884758 2.08594,-0.884765"
           id="path5842"
           style="fill:#800000"
           inkscape:connector-curvature="0" />
        <path
           d="m 125.40039,47.621094 c 0,0.484377 0.0879,0.849611 0.26367,1.095703 0.17969,0.246095 0.44336,0.369141 0.79102,0.36914 l 1.25976,0 0,0.914063 -1.36523,0 c -0.64454,0 -1.14454,-0.207031 -1.5,-0.621094 -0.35157,-0.414061 -0.52735,-0.999998 -0.52734,-1.757812 l 0,-5.958985 -1.72852,0 0,-0.84375 2.80664,0 0,6.802735"
           id="path5844"
           style="fill:#800000"
           inkscape:connector-curvature="0" />
        <path
           d="m 132.48437,44.193359 c -0.54687,6e-6 -0.96094,0.212897 -1.24218,0.638672 -0.28125,0.425786 -0.42188,1.056645 -0.42188,1.892578 0,0.832034 0.14063,1.462893 0.42188,1.892578 0.28124,0.425783 0.69531,0.638673 1.24218,0.638672 0.55078,10e-7 0.9668,-0.212889 1.24805,-0.638672 0.28125,-0.429685 0.42187,-1.060544 0.42188,-1.892578 -1e-5,-0.835933 -0.14063,-1.466792 -0.42188,-1.892578 -0.28125,-0.425775 -0.69727,-0.638666 -1.24805,-0.638672 m 0,-0.914062 c 0.91016,7e-6 1.60547,0.294928 2.08594,0.884765 0.48437,0.589849 0.72656,1.443364 0.72656,2.560547 0,1.121096 -0.24024,1.976564 -0.7207,2.566407 -0.48047,0.585937 -1.17774,0.878906 -2.0918,0.878906 -0.91015,0 -1.60547,-0.292969 -2.08593,-0.878906 -0.48047,-0.589843 -0.72071,-1.445311 -0.72071,-2.566407 0,-1.117183 0.24024,-1.970698 0.72071,-2.560547 0.48046,-0.589837 1.17578,-0.884758 2.08593,-0.884765"
           id="path5846"
           style="fill:#800000"
           inkscape:connector-curvature="0" />
        <path
           d="m 142.86133,44.791016 c -0.23048,-0.179682 -0.46485,-0.310542 -0.70313,-0.392579 -0.23828,-0.08203 -0.5,-0.123041 -0.78515,-0.123046 -0.67188,5e-6 -1.18555,0.210943 -1.54102,0.632812 -0.35547,0.42188 -0.53321,1.031254 -0.5332,1.828125 l 0,3.263672 -1.08399,0 0,-6.5625 1.08399,0 0,1.283203 c 0.17968,-0.464838 0.45507,-0.820306 0.82617,-1.066406 0.375,-0.249994 0.81835,-0.374993 1.33008,-0.375 0.26562,7e-6 0.51366,0.03321 0.74414,0.09961 0.23046,0.06641 0.45116,0.169929 0.66211,0.310547 l 0,1.101563"
           id="path5848"
           style="fill:#800000"
           inkscape:connector-curvature="0" />
        <path
           d="m 154.60937,48.130859 c 0,0.304689 0.10156,0.560549 0.30469,0.767578 0.20703,0.207033 0.46289,0.310548 0.76758,0.310547 0.30078,10e-7 0.55468,-0.103514 0.76172,-0.310547 0.21093,-0.210936 0.3164,-0.466795 0.31641,-0.767578 -1e-5,-0.300779 -0.10548,-0.556638 -0.31641,-0.767578 -0.21094,-0.210934 -0.46485,-0.316403 -0.76172,-0.316406 -0.30469,3e-6 -0.56055,0.103518 -0.76758,0.310547 -0.20313,0.207034 -0.30469,0.464846 -0.30469,0.773437 m -0.79101,0 c 0,-0.527341 0.17968,-0.9707 0.53906,-1.330078 0.35937,-0.363277 0.80078,-0.544918 1.32422,-0.544922 0.25,4e-6 0.48632,0.04688 0.70898,0.140625 0.22656,0.09375 0.42969,0.230472 0.60938,0.410157 0.17968,0.183596 0.31835,0.388674 0.41602,0.615234 0.0976,0.226565 0.14647,0.462893 0.14648,0.708984 -1e-5,0.519533 -0.18165,0.960939 -0.54492,1.324219 C 156.65429,49.81836 156.20898,50 155.68164,50 c -0.53125,0 -0.97461,-0.177734 -1.33008,-0.533203 -0.35547,-0.359374 -0.5332,-0.804686 -0.5332,-1.335938 m -2.57813,-0.855468 -0.20507,-0.5625 6.10546,-2.449219 0.24024,0.5625 -6.14063,2.449219 m 0.27539,-3.791016 c 0,0.3086 0.10157,0.566412 0.30469,0.773437 0.20703,0.203131 0.46484,0.304693 0.77344,0.304688 0.30078,5e-6 0.55664,-0.10351 0.76758,-0.310547 0.21093,-0.210931 0.3164,-0.466791 0.3164,-0.767578 0,-0.300774 -0.10547,-0.55468 -0.3164,-0.761719 -0.21094,-0.21093 -0.4668,-0.316398 -0.76758,-0.316406 -0.30078,8e-6 -0.55664,0.103523 -0.76758,0.310547 -0.20703,0.207038 -0.31055,0.462897 -0.31055,0.767578 m -0.79101,0 c 0,-0.527337 0.17969,-0.970696 0.53906,-1.330078 0.35938,-0.363273 0.80273,-0.544914 1.33008,-0.544922 0.25,8e-6 0.48828,0.04688 0.71484,0.140625 0.23047,0.09376 0.43359,0.228524 0.60938,0.404297 0.17578,0.175789 0.31054,0.378914 0.4043,0.609375 0.0976,0.226569 0.14648,0.466804 0.14648,0.720703 0,0.523443 -0.18164,0.966802 -0.54492,1.330078 -0.36329,0.35938 -0.80665,0.539067 -1.33008,0.539063 -0.52735,4e-6 -0.9707,-0.179683 -1.33008,-0.539063 -0.35937,-0.359369 -0.53906,-0.802728 -0.53906,-1.330078"
           id="path5850"
           style="fill:#800000"
           inkscape:connector-curvature="0" />
        <path
           d="m 163.45117,43.666016 0,1.054687 c -0.3086,-0.179682 -0.61914,-0.314447 -0.93164,-0.404297 -0.3125,-0.08984 -0.63086,-0.13476 -0.95508,-0.134765 -0.48828,5e-6 -0.85352,0.08008 -1.0957,0.240234 -0.23828,0.156255 -0.35742,0.39649 -0.35742,0.720703 0,0.292973 0.0898,0.511723 0.26953,0.65625 0.17968,0.144535 0.62695,0.28516 1.3418,0.421875 l 0.43359,0.08203 c 0.53515,0.101566 0.93945,0.304691 1.21289,0.609375 0.27734,0.304691 0.41601,0.701175 0.41602,1.189453 -1e-5,0.648439 -0.23048,1.156251 -0.69141,1.523438 -0.46094,0.363281 -1.10157,0.544922 -1.92188,0.544922 -0.32422,0 -0.66406,-0.03516 -1.01953,-0.105469 -0.35547,-0.06641 -0.74023,-0.167969 -1.15429,-0.304687 l 0,-1.113282 c 0.40234,0.207033 0.7871,0.363283 1.15429,0.46875 0.36719,0.101564 0.71484,0.152345 1.04297,0.152344 0.47656,10e-7 0.8457,-0.0957 1.10742,-0.287109 0.26172,-0.195312 0.39258,-0.466796 0.39258,-0.814453 0,-0.499998 -0.47852,-0.845701 -1.43554,-1.03711 l -0.0469,-0.01172 -0.4043,-0.08203 c -0.62109,-0.12109 -1.07422,-0.324215 -1.35937,-0.609375 -0.28516,-0.289058 -0.42774,-0.681636 -0.42774,-1.177734 0,-0.628901 0.21289,-1.113276 0.63868,-1.453125 0.42578,-0.343744 1.0332,-0.515618 1.82226,-0.515625 0.35156,7e-6 0.68945,0.03321 1.01367,0.09961 0.32422,0.06251 0.64258,0.15821 0.95508,0.28711"
           id="path5852"
           style="fill:#800000"
           inkscape:connector-curvature="0" />
        <path
           d="m 167.91016,48.224609 1.47656,0 0,1.212891 -1.1543,2.244141 -0.90234,0 0.58008,-2.244141 0,-1.212891"
           id="path5854"
           style="fill:#800000"
           inkscape:connector-curvature="0" />
        <path
           d="m 180.2207,41.251953 1.5,0 2.95313,7.201172 0,-7.201172 1.14258,0 0,8.748047 -1.5,0 -2.95313,-7.201172 0,7.201172 -1.14258,0 0,-8.748047"
           id="path5856"
           style="fill:#800000"
           inkscape:connector-curvature="0" />
        <path
           d="m 187.76758,47.515625 0,-4.066406 1.07812,0 0,4.066406 c 0,0.589846 0.10352,1.023439 0.31055,1.300781 0.21093,0.277345 0.53515,0.416017 0.97266,0.416016 0.5078,10e-7 0.89648,-0.177734 1.16601,-0.533203 0.26953,-0.359374 0.40429,-0.873045 0.4043,-1.541016 l 0,-3.708984 1.08398,0 0,6.550781 -1.08398,0 0,-0.984375 c -0.19141,0.378907 -0.45313,0.666016 -0.78516,0.861328 -0.32813,0.195313 -0.71289,0.292969 -1.15429,0.292969 -0.67188,0 -1.17188,-0.21875 -1.5,-0.65625 -0.32813,-0.441405 -0.49219,-1.10742 -0.49219,-1.998047"
           id="path5858"
           style="fill:#800000"
           inkscape:connector-curvature="0" />
        <path
           d="m 197.80469,44.105469 c 0.13281,-0.281244 0.30077,-0.488275 0.5039,-0.621094 0.20703,-0.136712 0.45508,-0.205071 0.74414,-0.205078 0.52734,7e-6 0.89844,0.205085 1.11329,0.615234 0.21874,0.406256 0.32811,1.173833 0.32812,2.302735 l 0,3.802734 -0.98437,0 0,-3.755859 c -1e-5,-0.925777 -0.0527,-1.499995 -0.15821,-1.722657 -0.10157,-0.226556 -0.28907,-0.339838 -0.5625,-0.339843 -0.3125,5e-6 -0.52735,0.121099 -0.64453,0.363281 -0.11328,0.238286 -0.16992,0.804692 -0.16992,1.699219 l 0,3.755859 -0.98438,0 0,-3.755859 c 0,-0.937496 -0.0566,-1.51562 -0.16992,-1.734375 -0.10938,-0.218745 -0.30859,-0.32812 -0.59765,-0.328125 -0.28516,5e-6 -0.48438,0.121099 -0.59766,0.363281 -0.10938,0.238286 -0.16406,0.804692 -0.16406,1.699219 l 0,3.755859 -0.97852,0 0,-6.5625 0.97852,0 0,0.5625 c 0.1289,-0.234369 0.28906,-0.412103 0.48047,-0.533203 0.19531,-0.124993 0.41601,-0.187493 0.66211,-0.1875 0.29687,7e-6 0.54296,0.06837 0.73828,0.205078 0.19921,0.136725 0.35351,0.343756 0.46289,0.621094"
           id="path5860"
           style="fill:#800000"
           inkscape:connector-curvature="0" />
        <path
           d="m 206.44141,46.724609 c -1e-5,-0.835933 -0.13282,-1.466792 -0.39844,-1.892578 -0.26563,-0.425775 -0.65821,-0.638666 -1.17774,-0.638672 -0.52344,6e-6 -0.91992,0.21485 -1.18945,0.644532 -0.26953,0.425786 -0.4043,1.054691 -0.4043,1.886718 0,0.828128 0.13477,1.457033 0.4043,1.886719 0.26953,0.429689 0.66601,0.644532 1.18945,0.644531 0.51953,10e-7 0.91211,-0.212889 1.17774,-0.638672 0.26562,-0.425779 0.39843,-1.056638 0.39844,-1.892578 m -3.16993,-2.449218 c 0.17188,-0.320307 0.4082,-0.5664 0.70899,-0.738282 0.30468,-0.171868 0.65625,-0.257805 1.05469,-0.257812 0.78905,7e-6 1.41015,0.304694 1.86328,0.914062 0.45312,0.605474 0.67968,1.441411 0.67968,2.507813 0,1.082033 -0.22852,1.931642 -0.68554,2.548828 -0.45313,0.613281 -1.07618,0.919922 -1.86914,0.919922 -0.39063,0 -0.73633,-0.08398 -1.03711,-0.251953 -0.29688,-0.171875 -0.53516,-0.419922 -0.71485,-0.744141 l 0,0.826172 -1.07812,0 0,-9.117188 1.07812,0 0,3.392579"
           id="path5862"
           style="fill:#800000"
           inkscape:connector-curvature="0" />
        <path
           d="m 214.79687,46.449219 0,0.527343 -4.66992,0 0,0.03516 c 0,0.714846 0.18555,1.26758 0.55664,1.658203 0.375,0.390626 0.90234,0.585938 1.58203,0.585937 0.34375,10e-7 0.70313,-0.05469 1.07813,-0.164062 0.37499,-0.109374 0.77538,-0.27539 1.20117,-0.498047 l 0,1.072266 c -0.41016,0.167969 -0.80664,0.292968 -1.18945,0.375 -0.37891,0.08594 -0.7461,0.128906 -1.10156,0.128906 -1.01954,0 -1.81641,-0.304687 -2.39063,-0.914063 -0.57422,-0.61328 -0.86133,-1.457029 -0.86133,-2.53125 0,-1.04687 0.28125,-1.882807 0.84375,-2.507812 0.5625,-0.624994 1.3125,-0.937493 2.25,-0.9375 0.83594,7e-6 1.49414,0.283209 1.97461,0.849609 0.48437,0.566412 0.72656,1.339849 0.72656,2.320313 m -1.07812,-0.316407 c -0.0156,-0.632807 -0.16602,-1.113276 -0.45117,-1.441406 -0.28126,-0.332025 -0.68751,-0.498041 -1.21875,-0.498047 -0.51954,6e-6 -0.94727,0.171881 -1.28321,0.515625 -0.33593,0.343755 -0.53515,0.820317 -0.59765,1.429688 l 3.55078,-0.0059"
           id="path5864"
           style="fill:#800000"
           inkscape:connector-curvature="0" />
        <path
           d="m 222.26758,44.791016 c -0.23048,-0.179682 -0.46485,-0.310542 -0.70313,-0.392579 -0.23828,-0.08203 -0.5,-0.123041 -0.78515,-0.123046 -0.67188,5e-6 -1.18555,0.210943 -1.54102,0.632812 -0.35547,0.42188 -0.53321,1.031254 -0.5332,1.828125 l 0,3.263672 -1.08399,0 0,-6.5625 1.08399,0 0,1.283203 c 0.17968,-0.464838 0.45507,-0.820306 0.82617,-1.066406 0.375,-0.249994 0.81835,-0.374993 1.33008,-0.375 0.26562,7e-6 0.51366,0.03321 0.74414,0.09961 0.23046,0.06641 0.45116,0.169929 0.66211,0.310547 l 0,1.101563"
           id="path5866"
           style="fill:#800000"
           inkscape:connector-curvature="0" />
        <path
           d="m 234.01562,48.130859 c 0,0.304689 0.10156,0.560549 0.30469,0.767578 0.20703,0.207033 0.46289,0.310548 0.76758,0.310547 0.30078,10e-7 0.55468,-0.103514 0.76172,-0.310547 0.21093,-0.210936 0.3164,-0.466795 0.31641,-0.767578 -1e-5,-0.300779 -0.10548,-0.556638 -0.31641,-0.767578 -0.21094,-0.210934 -0.46485,-0.316403 -0.76172,-0.316406 -0.30469,3e-6 -0.56055,0.103518 -0.76758,0.310547 -0.20313,0.207034 -0.30469,0.464846 -0.30469,0.773437 m -0.79101,0 c 0,-0.527341 0.17968,-0.9707 0.53906,-1.330078 0.35937,-0.363277 0.80078,-0.544918 1.32422,-0.544922 0.25,4e-6 0.48632,0.04688 0.70898,0.140625 0.22656,0.09375 0.42969,0.230472 0.60938,0.410157 0.17968,0.183596 0.31835,0.388674 0.41602,0.615234 0.0976,0.226565 0.14647,0.462893 0.14648,0.708984 -1e-5,0.519533 -0.18165,0.960939 -0.54492,1.324219 C 236.06054,49.81836 235.61523,50 235.08789,50 c -0.53125,0 -0.97461,-0.177734 -1.33008,-0.533203 -0.35547,-0.359374 -0.5332,-0.804686 -0.5332,-1.335938 m -2.57813,-0.855468 -0.20507,-0.5625 6.10546,-2.449219 0.24024,0.5625 -6.14063,2.449219 m 0.27539,-3.791016 c 0,0.3086 0.10157,0.566412 0.30469,0.773437 0.20703,0.203131 0.46484,0.304693 0.77344,0.304688 0.30078,5e-6 0.55664,-0.10351 0.76758,-0.310547 0.21093,-0.210931 0.3164,-0.466791 0.3164,-0.767578 0,-0.300774 -0.10547,-0.55468 -0.3164,-0.761719 -0.21094,-0.21093 -0.4668,-0.316398 -0.76758,-0.316406 -0.30078,8e-6 -0.55664,0.103523 -0.76758,0.310547 -0.20703,0.207038 -0.31055,0.462897 -0.31055,0.767578 m -0.79101,0 c 0,-0.527337 0.17969,-0.970696 0.53906,-1.330078 0.35938,-0.363273 0.80273,-0.544914 1.33008,-0.544922 0.25,8e-6 0.48828,0.04688 0.71484,0.140625 0.23047,0.09376 0.43359,0.228524 0.60938,0.404297 0.17578,0.175789 0.31054,0.378914 0.4043,0.609375 0.0976,0.226569 0.14648,0.466804 0.14648,0.720703 0,0.523443 -0.18164,0.966802 -0.54492,1.330078 -0.36329,0.35938 -0.80665,0.539067 -1.33008,0.539063 -0.52735,4e-6 -0.9707,-0.179683 -1.33008,-0.539063 -0.35937,-0.359369 -0.53906,-0.802728 -0.53906,-1.330078"
           id="path5868"
           style="fill:#800000"
           inkscape:connector-curvature="0" />
        <path
           d="m 242.18359,44.275391 0,-3.392579 1.07813,0 0,9.117188 -1.07813,0 0,-0.826172 c -0.17969,0.324219 -0.41992,0.572266 -0.7207,0.744141 -0.29688,0.167968 -0.64063,0.251953 -1.03125,0.251953 -0.79297,0 -1.41797,-0.306641 -1.875,-0.919922 -0.45313,-0.617186 -0.67969,-1.466795 -0.67969,-2.548828 0,-1.066402 0.22852,-1.902339 0.68555,-2.507813 0.45703,-0.609368 1.08008,-0.914055 1.86914,-0.914062 0.39453,7e-6 0.74218,0.08594 1.04297,0.257812 0.30078,0.167975 0.5371,0.414069 0.70898,0.738282 m -3.16992,2.449218 c 0,0.83594 0.13281,1.466799 0.39844,1.892578 0.26562,0.425783 0.6582,0.638673 1.17773,0.638672 0.51953,10e-7 0.91406,-0.214842 1.1836,-0.644531 0.27343,-0.429686 0.41015,-1.058591 0.41015,-1.886719 0,-0.832027 -0.13672,-1.460932 -0.41015,-1.886718 -0.26954,-0.429682 -0.66407,-0.644526 -1.1836,-0.644532 -0.51953,6e-6 -0.91211,0.212897 -1.17773,0.638672 -0.26563,0.425786 -0.39844,1.056645 -0.39844,1.892578"
           id="path5870"
           style="fill:#800000"
           inkscape:connector-curvature="0" />
        <path
           d="m 247.31641,48.224609 1.47656,0 0,1.212891 -1.1543,2.244141 -0.90234,0 0.58008,-2.244141 0,-1.212891"
           id="path5872"
           style="fill:#800000"
           inkscape:connector-curvature="0" />
        <path
           d="m 260.17773,41.251953 5.15039,0 0,0.996094 -3.96093,0 0,2.578125 3.59179,0 0,0.996094 -3.59179,0 0,4.177734 -1.18946,0 0,-8.748047"
           id="path5874"
           style="fill:#800000"
           inkscape:connector-curvature="0" />
        <path
           d="m 269.77539,47.621094 c 0,0.484377 0.0879,0.849611 0.26367,1.095703 0.17969,0.246095 0.44336,0.369141 0.79102,0.36914 l 1.25976,0 0,0.914063 -1.36523,0 c -0.64454,0 -1.14454,-0.207031 -1.5,-0.621094 -0.35157,-0.414061 -0.52735,-0.999998 -0.52734,-1.757812 l 0,-5.958985 -1.72852,0 0,-0.84375 2.80664,0 0,6.802735"
           id="path5876"
           style="fill:#800000"
           inkscape:connector-curvature="0" />
        <path
           d="m 276.85937,44.193359 c -0.54687,6e-6 -0.96094,0.212897 -1.24218,0.638672 -0.28125,0.425786 -0.42188,1.056645 -0.42188,1.892578 0,0.832034 0.14063,1.462893 0.42188,1.892578 0.28124,0.425783 0.69531,0.638673 1.24218,0.638672 0.55078,10e-7 0.9668,-0.212889 1.24805,-0.638672 0.28125,-0.429685 0.42187,-1.060544 0.42188,-1.892578 -10e-6,-0.835933 -0.14063,-1.466792 -0.42188,-1.892578 -0.28125,-0.425775 -0.69727,-0.638666 -1.24805,-0.638672 m 0,-0.914062 c 0.91016,7e-6 1.60547,0.294928 2.08594,0.884765 0.48437,0.589849 0.72656,1.443364 0.72656,2.560547 0,1.121096 -0.24024,1.976564 -0.7207,2.566407 -0.48047,0.585937 -1.17774,0.878906 -2.0918,0.878906 -0.91015,0 -1.60547,-0.292969 -2.08593,-0.878906 -0.48047,-0.589843 -0.72071,-1.445311 -0.72071,-2.566407 0,-1.117183 0.24024,-1.970698 0.72071,-2.560547 0.48046,-0.589837 1.17578,-0.884758 2.08593,-0.884765"
           id="path5878"
           style="fill:#800000"
           inkscape:connector-curvature="0" />
        <path
           d="m 284.58203,46.701172 -0.35742,0 c -0.62891,3e-6 -1.10352,0.111331 -1.42383,0.333984 -0.31641,0.218753 -0.47461,0.546878 -0.47461,0.984375 0,0.394533 0.11914,0.701173 0.35742,0.919922 0.23828,0.218751 0.56836,0.328126 0.99024,0.328125 0.59374,10e-7 1.06054,-0.205077 1.40039,-0.615234 0.33984,-0.414061 0.51171,-0.984373 0.51562,-1.710938 l 0,-0.240234 -1.00781,0 m 2.0918,-0.445313 0,3.744141 -1.08399,0 0,-0.972656 c -0.23047,0.390625 -0.52149,0.679688 -0.87304,0.867187 -0.34766,0.183594 -0.77149,0.275391 -1.27149,0.275391 -0.66797,0 -1.20117,-0.1875 -1.59961,-0.5625 -0.39844,-0.378906 -0.59765,-0.884764 -0.59765,-1.517578 0,-0.730466 0.24414,-1.285153 0.73242,-1.664063 0.49218,-0.378902 1.21289,-0.568355 2.16211,-0.568359 l 1.44726,0 0,-0.169922 c -0.004,-0.523433 -0.13672,-0.902339 -0.39843,-1.136719 -0.26173,-0.238275 -0.6797,-0.357416 -1.25391,-0.357422 -0.36719,6e-6 -0.73828,0.05274 -1.11328,0.158203 -0.375,0.105475 -0.74024,0.259772 -1.0957,0.462891 l 0,-1.078125 c 0.39843,-0.152337 0.77929,-0.265618 1.14257,-0.339844 0.36719,-0.07812 0.72266,-0.11718 1.06641,-0.117187 0.54296,7e-6 1.00585,0.08008 1.38867,0.240234 0.38672,0.160163 0.69922,0.400397 0.9375,0.720703 0.14843,0.195318 0.2539,0.437506 0.31641,0.726563 0.0625,0.285161 0.0937,0.714848 0.0937,1.289062"
           id="path5880"
           style="fill:#800000"
           inkscape:connector-curvature="0" />
        <path
           d="m 291.28516,41.574219 0,1.863281 2.44921,0 0,0.837891 -2.44921,0 0,3.5625 c -1e-5,0.484376 0.0918,0.822267 0.27539,1.013671 0.18359,0.191408 0.5039,0.287111 0.96093,0.28711 l 1.21289,0 0,0.861328 -1.31835,0 c -0.8086,0 -1.37891,-0.162109 -1.71094,-0.486328 -0.33204,-0.324218 -0.49805,-0.882811 -0.49805,-1.675781 l 0,-3.5625 -1.75195,0 0,-0.837891 1.75195,0 0,-1.863281 1.07813,0"
           id="path5882"
           style="fill:#800000"
           inkscape:connector-curvature="0" />
        <path
           d="m 306.20312,48.130859 c 0,0.304689 0.10156,0.560549 0.30469,0.767578 0.20703,0.207033 0.46289,0.310548 0.76758,0.310547 0.30078,10e-7 0.55468,-0.103514 0.76172,-0.310547 0.21093,-0.210936 0.3164,-0.466795 0.31641,-0.767578 -10e-6,-0.300779 -0.10548,-0.556638 -0.31641,-0.767578 -0.21094,-0.210934 -0.46485,-0.316403 -0.76172,-0.316406 -0.30469,3e-6 -0.56055,0.103518 -0.76758,0.310547 -0.20313,0.207034 -0.30469,0.464846 -0.30469,0.773437 m -0.79101,0 c 0,-0.527341 0.17968,-0.9707 0.53906,-1.330078 0.35937,-0.363277 0.80078,-0.544918 1.32422,-0.544922 0.25,4e-6 0.48632,0.04688 0.70898,0.140625 0.22656,0.09375 0.42969,0.230472 0.60938,0.410157 0.17968,0.183596 0.31835,0.388674 0.41602,0.615234 0.0976,0.226565 0.14647,0.462893 0.14648,0.708984 -10e-6,0.519533 -0.18165,0.960939 -0.54492,1.324219 C 308.24804,49.81836 307.80273,50 307.27539,50 c -0.53125,0 -0.97461,-0.177734 -1.33008,-0.533203 -0.35547,-0.359374 -0.5332,-0.804686 -0.5332,-1.335938 m -2.57813,-0.855468 -0.20507,-0.5625 6.10546,-2.449219 0.24024,0.5625 -6.14063,2.449219 m 0.27539,-3.791016 c 0,0.3086 0.10157,0.566412 0.30469,0.773437 0.20703,0.203131 0.46484,0.304693 0.77344,0.304688 0.30078,5e-6 0.55664,-0.10351 0.76758,-0.310547 0.21093,-0.210931 0.3164,-0.466791 0.3164,-0.767578 0,-0.300774 -0.10547,-0.55468 -0.3164,-0.761719 -0.21094,-0.21093 -0.4668,-0.316398 -0.76758,-0.316406 -0.30078,8e-6 -0.55664,0.103523 -0.76758,0.310547 -0.20703,0.207038 -0.31055,0.462897 -0.31055,0.767578 m -0.79101,0 c 0,-0.527337 0.17969,-0.970696 0.53906,-1.330078 0.35938,-0.363273 0.80273,-0.544914 1.33008,-0.544922 0.25,8e-6 0.48828,0.04688 0.71484,0.140625 0.23047,0.09376 0.43359,0.228524 0.60938,0.404297 0.17578,0.175789 0.31054,0.378914 0.4043,0.609375 0.0976,0.226569 0.14648,0.466804 0.14648,0.720703 0,0.523443 -0.18164,0.966802 -0.54492,1.330078 -0.36329,0.35938 -0.80665,0.539067 -1.33008,0.539063 -0.52735,4e-6 -0.9707,-0.179683 -1.33008,-0.539063 -0.35937,-0.359369 -0.53906,-0.802728 -0.53906,-1.330078"
           id="path5884"
           style="fill:#800000"
           inkscape:connector-curvature="0" />
        <path
           d="m 310.55664,41.251953 4.42969,0 0,0.996094 -3.35156,0 0,2.15039 c 0.16796,-0.06249 0.33593,-0.107416 0.5039,-0.134765 0.17187,-0.03124 0.34375,-0.04687 0.51563,-0.04687 0.90624,6e-6 1.62499,0.267584 2.15625,0.802734 0.53124,0.535161 0.79687,1.25977 0.79687,2.173828 0,0.921877 -0.2793,1.648439 -0.83789,2.179688 -0.55469,0.53125 -1.31446,0.796875 -2.2793,0.796875 -0.46484,0 -0.89062,-0.03125 -1.27734,-0.09375 -0.38281,-0.0625 -0.72656,-0.15625 -1.03125,-0.28125 l 0,-1.201172 c 0.35937,0.195314 0.7207,0.341798 1.08398,0.439453 0.36328,0.09375 0.73438,0.140626 1.11329,0.140625 0.65234,10e-7 1.15429,-0.171874 1.50586,-0.515625 0.35546,-0.343748 0.53319,-0.832029 0.5332,-1.464844 -1e-5,-0.624996 -0.1836,-1.111324 -0.55078,-1.458984 -0.36329,-0.347652 -0.8711,-0.52148 -1.52344,-0.521484 -0.31641,4e-6 -0.625,0.03711 -0.92578,0.111328 -0.30078,0.07032 -0.58789,0.177739 -0.86133,0.322265 l 0,-4.394531"
           id="path5886"
           style="fill:#800000"
           inkscape:connector-curvature="0" />
        <path
           d="m 319.42773,48.212891 1.47657,0 0,1.787109 -1.47657,0 0,-1.787109"
           id="path5888"
           style="fill:#800000"
           inkscape:connector-curvature="0" />
        <path
           d="m 325.9668,49.003906 4.01953,0 0,0.996094 -5.31446,0 0,-0.996094 c 0.73047,-0.769529 1.36914,-1.449216 1.91602,-2.039062 0.54687,-0.58984 0.92383,-1.005856 1.13086,-1.248047 0.39062,-0.476558 0.65429,-0.861323 0.79102,-1.154297 0.13671,-0.296869 0.20507,-0.599603 0.20507,-0.908203 0,-0.488275 -0.14453,-0.871087 -0.43359,-1.148438 -0.28516,-0.277336 -0.67774,-0.416007 -1.17773,-0.416015 -0.35548,8e-6 -0.72852,0.06446 -1.11915,0.193359 -0.39062,0.128914 -0.80468,0.324226 -1.24218,0.585938 l 0,-1.195313 c 0.40234,-0.191398 0.79687,-0.335929 1.18359,-0.433594 0.39062,-0.09765 0.77539,-0.146475 1.1543,-0.146484 0.85546,9e-6 1.54296,0.228524 2.0625,0.685547 0.52343,0.453133 0.78515,1.048835 0.78515,1.787109 0,0.375006 -0.0879,0.750006 -0.26367,1.125 -0.17188,0.375005 -0.45313,0.789067 -0.84375,1.242188 -0.21875,0.25391 -0.53711,0.605472 -0.95508,1.054687 -0.41406,0.449222 -1.04687,1.121096 -1.89843,2.015625"
           id="path5890"
           style="fill:#800000"
           inkscape:connector-curvature="0" />
        <path
           d="m 337.22852,40.882812 0,0.896485 -1.22461,0 c -0.38673,8e-6 -0.65626,0.08009 -0.8086,0.240234 -0.14844,0.156258 -0.22266,0.435555 -0.22265,0.837891 l 0,0.580078 2.25586,0 0,0.837891 -2.25586,0 0,5.724609 -1.07813,0 0,-5.724609 -1.75195,0 0,-0.837891 1.75195,0 0,-0.457031 c 0,-0.718743 0.16406,-1.248039 0.49219,-1.587891 0.33203,-0.339835 0.84765,-0.509756 1.54687,-0.509766 l 1.29493,0"
           id="path5892"
           style="fill:#800000"
           inkscape:connector-curvature="0" />
        <path
           d="m 343.46289,41.251953 0,3.251953 -1.01953,0 0,-3.251953 1.01953,0 m -2.24414,0 0,3.251953 -1.01953,0 0,-3.251953 1.01953,0"
           id="path5894"
           style="fill:#800000"
           inkscape:connector-curvature="0" />
        <path
           d="m 348.37891,48.224609 1.47656,0 0,1.212891 -1.1543,2.244141 -0.90234,0 0.58008,-2.244141 0,-1.212891"
           id="path5896"
           style="font-family:Monospace"
           inkscape:connector-curvature="0" />
        <path
           d="m 365.11914,41.251953 0,3.251953 -1.01953,0 0,-3.251953 1.01953,0 m -2.24414,0 0,3.251953 -1.01953,0 0,-3.251953 1.01953,0"
           id="path5898"
           style="font-family:Monospace"
           inkscape:connector-curvature="0" />
        <path
           d="m 373.86133,44.791016 c -0.23048,-0.179682 -0.46485,-0.310542 -0.70313,-0.392579 -0.23828,-0.08203 -0.5,-0.123041 -0.78515,-0.123046 -0.67188,5e-6 -1.18555,0.210943 -1.54102,0.632812 -0.35547,0.42188 -0.53321,1.031254 -0.5332,1.828125 l 0,3.263672 -1.08399,0 0,-6.5625 1.08399,0 0,1.283203 c 0.17968,-0.464838 0.45507,-0.820306 0.82617,-1.066406 0.375,-0.249994 0.81835,-0.374993 1.33008,-0.375 0.26562,7e-6 0.51366,0.03321 0.74414,0.09961 0.23046,0.06641 0.45116,0.169929 0.66211,0.310547 l 0,1.101563"
           id="path5900"
           style="font-family:Monospace"
           inkscape:connector-curvature="0" />
        <path
           d="m 380.82812,46.449219 0,0.527343 -4.66992,0 0,0.03516 c 0,0.714846 0.18555,1.26758 0.55664,1.658203 0.375,0.390626 0.90234,0.585938 1.58203,0.585937 0.34375,10e-7 0.70313,-0.05469 1.07813,-0.164062 0.37499,-0.109374 0.77538,-0.27539 1.20117,-0.498047 l 0,1.072266 c -0.41016,0.167969 -0.80664,0.292968 -1.18945,0.375 -0.37891,0.08594 -0.7461,0.128906 -1.10156,0.128906 -1.01954,0 -1.81641,-0.304687 -2.39063,-0.914063 -0.57422,-0.61328 -0.86133,-1.457029 -0.86133,-2.53125 0,-1.04687 0.28125,-1.882807 0.84375,-2.507812 0.5625,-0.624994 1.3125,-0.937493 2.25,-0.9375 0.83594,7e-6 1.49414,0.283209 1.97461,0.849609 0.48437,0.566412 0.72656,1.339849 0.72656,2.320313 M 379.75,46.132812 c -0.0156,-0.632807 -0.16602,-1.113276 -0.45117,-1.441406 -0.28126,-0.332025 -0.68751,-0.498041 -1.21875,-0.498047 -0.51954,6e-6 -0.94727,0.171881 -1.28321,0.515625 -0.33593,0.343755 -0.53515,0.820317 -0.59765,1.429688 l 3.55078,-0.0059"
           id="path5902"
           style="font-family:Monospace"
           inkscape:connector-curvature="0" />
        <path
           d="m 386.55859,44.275391 0,-3.392579 1.07813,0 0,9.117188 -1.07813,0 0,-0.826172 c -0.17969,0.324219 -0.41992,0.572266 -0.7207,0.744141 -0.29688,0.167968 -0.64063,0.251953 -1.03125,0.251953 -0.79297,0 -1.41797,-0.306641 -1.875,-0.919922 -0.45313,-0.617186 -0.67969,-1.466795 -0.67969,-2.548828 0,-1.066402 0.22852,-1.902339 0.68555,-2.507813 0.45703,-0.609368 1.08008,-0.914055 1.86914,-0.914062 0.39453,7e-6 0.74218,0.08594 1.04297,0.257812 0.30078,0.167975 0.5371,0.414069 0.70898,0.738282 m -3.16992,2.449218 c 0,0.83594 0.13281,1.466799 0.39844,1.892578 0.26562,0.425783 0.6582,0.638673 1.17773,0.638672 0.51953,10e-7 0.91406,-0.214842 1.1836,-0.644531 0.27343,-0.429686 0.41015,-1.058591 0.41015,-1.886719 0,-0.832027 -0.13672,-1.460932 -0.41015,-1.886718 -0.26954,-0.429682 -0.66407,-0.644526 -1.1836,-0.644532 -0.51953,6e-6 -0.91211,0.212897 -1.17773,0.638672 -0.26563,0.425786 -0.39844,1.056645 -0.39844,1.892578"
           id="path5904"
           style="font-family:Monospace"
           inkscape:connector-curvature="0" />
        <path
           d="m 393.99414,41.251953 0,3.251953 -1.01953,0 0,-3.251953 1.01953,0 m -2.24414,0 0,3.251953 -1.01953,0 0,-3.251953 1.01953,0"
           id="path5906"
           style="font-family:Monospace"
           inkscape:connector-curvature="0" />
        <path
           d="m 398.91016,48.224609 1.47656,0 0,1.212891 -1.1543,2.244141 -0.90234,0 0.58008,-2.244141 0,-1.212891"
           id="path5908"
           style="font-family:Monospace"
           inkscape:connector-curvature="0" />
        <path
           d="m 411.98828,49.003906 1.83984,0 0,-6.685547 -1.98046,0.445313 0,-1.078125 1.96875,-0.433594 1.18359,0 0,7.751953 1.81641,0 0,0.996094 -4.82813,0 0,-0.996094"
           id="path5910"
           style="font-family:Monospace"
           inkscape:connector-curvature="0" />
        <path
           d="m 419.81055,49.003906 4.01953,0 0,0.996094 -5.31446,0 0,-0.996094 c 0.73047,-0.769529 1.36914,-1.449216 1.91602,-2.039062 0.54687,-0.58984 0.92383,-1.005856 1.13086,-1.248047 0.39062,-0.476558 0.65429,-0.861323 0.79102,-1.154297 0.13671,-0.296869 0.20507,-0.599603 0.20507,-0.908203 0,-0.488275 -0.14453,-0.871087 -0.43359,-1.148438 -0.28516,-0.277336 -0.67774,-0.416007 -1.17773,-0.416015 -0.35548,8e-6 -0.72852,0.06446 -1.11915,0.193359 -0.39062,0.128914 -0.80468,0.324226 -1.24218,0.585938 l 0,-1.195313 c 0.40234,-0.191398 0.79687,-0.335929 1.18359,-0.433594 0.39062,-0.09765 0.77539,-0.146475 1.1543,-0.146484 0.85546,9e-6 1.54296,0.228524 2.0625,0.685547 0.52343,0.453133 0.78515,1.048835 0.78515,1.787109 0,0.375006 -0.0879,0.750006 -0.26367,1.125 -0.17188,0.375005 -0.45313,0.789067 -0.84375,1.242188 -0.21875,0.25391 -0.53711,0.605472 -0.95508,1.054687 -0.41406,0.449222 -1.04687,1.121096 -1.89843,2.015625"
           id="path5912"
           style="font-family:Monospace"
           inkscape:connector-curvature="0" />
        <path
           d="m 429.39062,45.318359 c 0.57422,0.152349 1.01367,0.423833 1.31836,0.814453 0.30469,0.386723 0.45703,0.871097 0.45704,1.453125 -10e-6,0.80469 -0.27149,1.437501 -0.81446,1.898438 -0.53906,0.457031 -1.28711,0.685547 -2.24414,0.685547 -0.40234,0 -0.8125,-0.03711 -1.23047,-0.111328 -0.41797,-0.07422 -0.82812,-0.181641 -1.23047,-0.322266 l 0,-1.177734 c 0.39844,0.207032 0.79102,0.361329 1.17774,0.46289 0.38672,0.101564 0.77148,0.152345 1.1543,0.152344 0.64843,10e-7 1.14648,-0.146483 1.49414,-0.439453 0.34765,-0.292967 0.52148,-0.714842 0.52148,-1.265625 0,-0.507809 -0.17383,-0.910153 -0.52148,-1.207031 -0.34766,-0.300777 -0.81837,-0.451168 -1.41211,-0.451172 l -0.90235,0 0,-0.972656 0.90235,0 c 0.54296,5e-6 0.96679,-0.119136 1.27148,-0.357422 0.30468,-0.238276 0.45703,-0.570307 0.45703,-0.996094 0,-0.449212 -0.14258,-0.792961 -0.42773,-1.03125 -0.28126,-0.24218 -0.6836,-0.363273 -1.20703,-0.363281 -0.34766,8e-6 -0.70704,0.03907 -1.07813,0.117187 -0.37109,0.07813 -0.75977,0.19532 -1.16601,0.351563 l 0,-1.089844 c 0.47265,-0.124991 0.89257,-0.218741 1.25976,-0.28125 0.37109,-0.06249 0.69922,-0.09374 0.98438,-0.09375 0.85156,9e-6 1.53124,0.214852 2.03906,0.644531 0.51171,0.425789 0.76757,0.992195 0.76758,1.699219 -10e-6,0.480475 -0.13477,0.880865 -0.4043,1.201172 -0.26563,0.320317 -0.6543,0.54688 -1.16602,0.679687"
           id="path5914"
           style="font-family:Monospace"
           inkscape:connector-curvature="0" />
        <path
           d="m 436.36914,42.330078 -2.75977,4.623047 2.75977,0 0,-4.623047 m -0.19336,-1.078125 1.37109,0 0,5.701172 1.16602,0 0,0.960937 -1.16602,0 0,2.085938 -1.17773,0 0,-2.085938 -3.70898,0 0,-1.11914 3.51562,-5.542969"
           id="path5916"
           style="font-family:Monospace"
           inkscape:connector-curvature="0" />
        <path
           d="m 440.49414,41.251953 4.42969,0 0,0.996094 -3.35156,0 0,2.15039 c 0.16796,-0.06249 0.33593,-0.107416 0.5039,-0.134765 0.17187,-0.03124 0.34375,-0.04687 0.51563,-0.04687 0.90624,6e-6 1.62499,0.267584 2.15625,0.802734 0.53124,0.535161 0.79687,1.25977 0.79687,2.173828 0,0.921877 -0.2793,1.648439 -0.83789,2.179688 -0.55469,0.53125 -1.31446,0.796875 -2.2793,0.796875 -0.46484,0 -0.89062,-0.03125 -1.27734,-0.09375 -0.38281,-0.0625 -0.72656,-0.15625 -1.03125,-0.28125 l 0,-1.201172 c 0.35937,0.195314 0.7207,0.341798 1.08398,0.439453 0.36328,0.09375 0.73438,0.140626 1.11329,0.140625 0.65234,10e-7 1.15429,-0.171874 1.50586,-0.515625 0.35546,-0.343748 0.53319,-0.832029 0.5332,-1.464844 -1e-5,-0.624996 -0.1836,-1.111324 -0.55078,-1.458984 -0.36329,-0.347652 -0.8711,-0.52148 -1.52344,-0.521484 -0.31641,4e-6 -0.625,0.03711 -0.92578,0.111328 -0.30078,0.07032 -0.58789,0.177739 -0.86133,0.322265 l 0,-4.394531"
           id="path5918"
           style="font-family:Monospace"
           inkscape:connector-curvature="0" />
        <path
           d="m 452.30664,41.445312 0,1.089844 c -0.2461,-0.144523 -0.50782,-0.253898 -0.78516,-0.328125 -0.27734,-0.07812 -0.56641,-0.117179 -0.86718,-0.117187 -0.75001,8e-6 -1.31837,0.283211 -1.70508,0.849609 -0.38672,0.562507 -0.58008,1.392584 -0.58008,2.490234 0.1875,-0.39062 0.44726,-0.689447 0.7793,-0.896484 0.33203,-0.210932 0.71288,-0.3164 1.14258,-0.316406 0.84374,6e-6 1.49608,0.259771 1.95703,0.779297 0.46483,0.515629 0.69726,1.24805 0.69726,2.197265 0,0.945315 -0.23828,1.677736 -0.71484,2.197266 -0.47657,0.519531 -1.14649,0.779297 -2.00977,0.779297 -1.01562,0 -1.75976,-0.363281 -2.23242,-1.089844 -0.47266,-0.730467 -0.70898,-1.878903 -0.70898,-3.445312 0,-1.476557 0.2832,-2.601556 0.84961,-3.375 0.57031,-0.777336 1.39452,-1.166007 2.47265,-1.166016 0.28906,9e-6 0.57812,0.03126 0.86719,0.09375 0.28906,0.0586 0.56835,0.14454 0.83789,0.257812 m -2.10937,3.697266 c -0.50391,5e-6 -0.9004,0.181645 -1.18946,0.544922 -0.28906,0.363285 -0.43359,0.865238 -0.43359,1.505859 0,0.640628 0.14453,1.14258 0.43359,1.50586 0.28906,0.363282 0.68555,0.544922 1.18946,0.544922 0.52343,0 0.91796,-0.171874 1.18359,-0.515625 0.26562,-0.347655 0.39843,-0.859373 0.39844,-1.535157 -10e-6,-0.679684 -0.13282,-1.191402 -0.39844,-1.535156 -0.26563,-0.343745 -0.66016,-0.51562 -1.18359,-0.515625"
           id="path5920"
           style="font-family:Monospace"
           inkscape:connector-curvature="0" />
        <path
           d="m 454.5332,41.251953 5.50782,0 0,0.503906 L 456.91211,50 l -1.23633,0 3.04688,-7.751953 -4.18946,0 0,-0.996094"
           id="path5922"
           style="font-family:Monospace"
           inkscape:connector-curvature="0" />
        <path
           d="m 463.87891,48.224609 1.47656,0 0,1.212891 -1.1543,2.244141 -0.90234,0 0.58008,-2.244141 0,-1.212891"
           id="path5924"
           style="font-family:Monospace"
           inkscape:connector-curvature="0" />
        <path
           d="m 479.92187,45.318359 c 0.57422,0.152349 1.01367,0.423833 1.31836,0.814453 0.30469,0.386723 0.45703,0.871097 0.45704,1.453125 -10e-6,0.80469 -0.27149,1.437501 -0.81446,1.898438 -0.53906,0.457031 -1.28711,0.685547 -2.24414,0.685547 -0.40234,0 -0.8125,-0.03711 -1.23047,-0.111328 -0.41797,-0.07422 -0.82812,-0.181641 -1.23047,-0.322266 l 0,-1.177734 c 0.39844,0.207032 0.79102,0.361329 1.17774,0.46289 0.38672,0.101564 0.77148,0.152345 1.1543,0.152344 0.64843,10e-7 1.14648,-0.146483 1.49414,-0.439453 0.34765,-0.292967 0.52148,-0.714842 0.52148,-1.265625 0,-0.507809 -0.17383,-0.910153 -0.52148,-1.207031 -0.34766,-0.300777 -0.81837,-0.451168 -1.41211,-0.451172 l -0.90235,0 0,-0.972656 0.90235,0 c 0.54296,5e-6 0.96679,-0.119136 1.27148,-0.357422 0.30468,-0.238276 0.45703,-0.570307 0.45703,-0.996094 0,-0.449212 -0.14258,-0.792961 -0.42773,-1.03125 -0.28126,-0.24218 -0.6836,-0.363273 -1.20703,-0.363281 -0.34766,8e-6 -0.70704,0.03907 -1.07813,0.117187 -0.37109,0.07813 -0.75977,0.19532 -1.16601,0.351563 l 0,-1.089844 c 0.47265,-0.124991 0.89257,-0.218741 1.25976,-0.28125 0.37109,-0.06249 0.69922,-0.09374 0.98438,-0.09375 0.85156,9e-6 1.53124,0.214852 2.03906,0.644531 0.51171,0.425789 0.76757,0.992195 0.76758,1.699219 -10e-6,0.480475 -0.13477,0.880865 -0.4043,1.201172 -0.26563,0.320317 -0.6543,0.54688 -1.16602,0.679687"
           id="path5926"
           style="font-family:Monospace"
           inkscape:connector-curvature="0" />
        <path
           d="m 485.45898,48.212891 1.47657,0 0,1.787109 -1.47657,0 0,-1.787109"
           id="path5928"
           style="font-family:Monospace"
           inkscape:connector-curvature="0" />
        <path
           d="m 491.39453,49.003906 1.83984,0 0,-6.685547 -1.98046,0.445313 0,-1.078125 1.96875,-0.433594 1.18359,0 0,7.751953 1.81641,0 0,0.996094 -4.82813,0 0,-0.996094"
           id="path5930"
           style="font-family:Monospace"
           inkscape:connector-curvature="0" />
        <path
           d="m 501.33789,42.330078 -2.75977,4.623047 2.75977,0 0,-4.623047 m -0.19336,-1.078125 1.37109,0 0,5.701172 1.16602,0 0,0.960937 -1.16602,0 0,2.085938 -1.17773,0 0,-2.085938 -3.70898,0 0,-1.11914 3.51562,-5.542969"
           id="path5932"
           style="font-family:Monospace"
           inkscape:connector-curvature="0" />
        <path
           d="m 506.28906,40.894531 0.9375,0 c 0.58984,0.921883 1.0293,1.824226 1.31836,2.707031 0.28906,0.882819 0.43359,1.759771 0.4336,2.63086 -10e-6,0.878909 -0.14454,1.759768 -0.4336,2.642578 -0.28906,0.882813 -0.72852,1.785156 -1.31836,2.707031 l -0.9375,0 c 0.51953,-0.90625 0.90625,-1.802734 1.16016,-2.689453 0.25781,-0.886717 0.38671,-1.773434 0.38672,-2.660156 -10e-6,-0.89062 -0.12891,-1.779291 -0.38672,-2.666016 -0.25391,-0.886711 -0.64063,-1.777335 -1.16016,-2.671875"
           id="path5934"
           style="fill:#008000"
           inkscape:connector-curvature="0" />
        <path
           d="m 514.41016,48.224609 1.47656,0 0,1.212891 -1.1543,2.244141 -0.90234,0 0.58008,-2.244141 0,-1.212891 m -0.0762,-4.453125 1.47657,0 0,1.775391 -1.47657,0 0,-1.775391"
           id="path5936"
           style="font-family:Monospace"
           inkscape:connector-curvature="0" />
      </g>
      <g
         style="display:inline"
         id="text2925"
         transform="translate(-0.597656,12.5039)">
        <path
           d="m 15.097656,92.728516 c -0.687504,7e-6 -1.220707,0.253913 -1.599609,0.761718 -0.378909,0.507819 -0.568362,1.222662 -0.568359,2.144532 -3e-6,0.917972 0.18945,1.630862 0.568359,2.138671 0.378902,0.507815 0.912105,0.761721 1.599609,0.761719 0.691401,2e-6 1.226556,-0.253904 1.605469,-0.761719 0.378899,-0.507809 0.568352,-1.220699 0.568359,-2.138671 -7e-6,-0.92187 -0.18946,-1.636713 -0.568359,-2.144532 -0.378913,-0.507805 -0.914068,-0.761711 -1.605469,-0.761718 m 0,-1.634766 c 1.406244,9e-6 2.507805,0.402352 3.304688,1.207031 0.796866,0.804695 1.195303,1.916022 1.195312,3.333985 -9e-6,1.414065 -0.398446,2.523439 -1.195312,3.328125 -0.796883,0.804687 -1.898444,1.207029 -3.304688,1.207029 -1.402347,0 -2.503909,-0.402342 -3.304687,-1.207029 -0.796876,-0.804686 -1.195313,-1.91406 -1.195313,-3.328125 0,-1.417963 0.398437,-2.52929 1.195313,-3.333985 0.800778,-0.804679 1.90234,-1.207022 3.304687,-1.207031"
           id="path5735"
           style="font-weight:bold"
           inkscape:connector-curvature="0" />
        <path
           d="m 21.132812,97.445312 0,-4.007812 2.109375,0 0,0.65625 c -3e-6,0.355474 -0.002,0.802739 -0.0059,1.341797 -0.0039,0.53516 -0.0059,0.892582 -0.0059,1.072265 -3e-6,0.527347 0.01367,0.908206 0.04102,1.142579 0.02734,0.23047 0.07422,0.398439 0.140625,0.503906 0.08593,0.13672 0.197263,0.242189 0.333985,0.316406 0.140621,0.07422 0.300777,0.11133 0.480468,0.111328 0.437496,2e-6 0.781246,-0.167967 1.03125,-0.503906 0.249995,-0.335935 0.374995,-0.802732 0.375,-1.400391 l 0,-3.240234 2.097657,0 0,6.5625 -2.097657,0 0,-0.949219 c -0.316411,0.382813 -0.652348,0.666016 -1.007812,0.84961 -0.351567,0.179689 -0.740238,0.269529 -1.166016,0.269529 -0.757815,0 -1.335939,-0.23242 -1.734375,-0.697264 C 21.33,99.007813 21.132735,98.332033 21.132735,97.445312"
           id="path5737"
           style="font-weight:bold"
           inkscape:connector-curvature="0" />
        <path
           d="m 32.048828,91.574219 0,1.863281 2.162109,0 0,1.5 -2.162109,0 0,2.783203 c -3e-6,0.30469 0.06054,0.511721 0.181641,0.621094 0.12109,0.10547 0.361324,0.158204 0.720703,0.158203 l 1.078125,0 0,1.5 -1.798828,0 c -0.828128,0 -1.416018,-0.171875 -1.763672,-0.515625 -0.343751,-0.347655 -0.515626,-0.935545 -0.515625,-1.763672 l 0,-2.783203 -1.042969,0 0,-1.5 1.042969,0 0,-1.863281 2.097656,0"
           id="path5739"
           style="font-weight:bold"
           inkscape:connector-curvature="0" />
        <path
           d="m 37.597656,99.050781 0,3.445309 -2.097656,0 0,-9.05859 2.097656,0 0,0.960937 c 0.289059,-0.382806 0.609372,-0.664056 0.960938,-0.84375 0.351558,-0.183587 0.755854,-0.275383 1.21289,-0.27539 0.808588,7e-6 1.47265,0.322272 1.992188,0.966797 0.519523,0.64063 0.779289,1.466801 0.779297,2.478515 -8e-6,1.011721 -0.259774,1.839846 -0.779297,2.484375 -0.519538,0.640626 -1.1836,0.960936 -1.992188,0.960936 -0.457036,0 -0.861332,-0.0898 -1.21289,-0.269529 -0.351566,-0.183594 -0.671879,-0.466797 -0.960938,-0.84961 m 1.394531,-4.248047 c -0.449222,6e-6 -0.794925,0.166021 -1.037109,0.498047 -0.238284,0.32813 -0.357425,0.802739 -0.357422,1.423828 -3e-6,0.621097 0.119138,1.097659 0.357422,1.429688 0.242184,0.328126 0.587887,0.492189 1.037109,0.492187 0.449214,2e-6 0.791011,-0.164061 1.025391,-0.492187 0.238276,-0.328123 0.357416,-0.804685 0.357422,-1.429688 -6e-6,-0.624996 -0.119146,-1.101558 -0.357422,-1.429687 -0.23438,-0.32812 -0.576177,-0.492182 -1.025391,-0.492188"
           id="path5741"
           style="font-weight:bold"
           inkscape:connector-curvature="0" />
        <path
           d="m 44.03125,97.445312 0,-4.007812 2.109375,0 0,0.65625 c -3e-6,0.355474 -0.002,0.802739 -0.0059,1.341797 -0.0039,0.53516 -0.0059,0.892582 -0.0059,1.072265 -3e-6,0.527347 0.01367,0.908206 0.04102,1.142579 0.02734,0.23047 0.07422,0.398439 0.140625,0.503906 0.08593,0.13672 0.197262,0.242189 0.333984,0.316406 0.140622,0.07422 0.300778,0.11133 0.480469,0.111328 0.437496,2e-6 0.781245,-0.167967 1.03125,-0.503906 0.249995,-0.335935 0.374995,-0.802732 0.375,-1.400391 l 0,-3.240234 2.097656,0 0,6.5625 -2.097656,0 0,-0.949219 c -0.316411,0.382813 -0.652349,0.666016 -1.007813,0.84961 -0.351566,0.179689 -0.740238,0.269529 -1.166015,0.269529 -0.757815,0 -1.33594,-0.23242 -1.734375,-0.697264 -0.394533,-0.464843 -0.591798,-1.140623 -0.591797,-2.027344"
           id="path5743"
           style="font-weight:bold"
           inkscape:connector-curvature="0" />
        <path
           d="m 54.947266,91.574219 0,1.863281 2.162109,0 0,1.5 -2.162109,0 0,2.783203 c -4e-6,0.30469 0.06054,0.511721 0.18164,0.621094 0.12109,0.10547 0.361325,0.158204 0.720703,0.158203 l 1.078125,0 0,1.5 -1.798828,0 c -0.828127,0 -1.416017,-0.171875 -1.763672,-0.515625 -0.343751,-0.347655 -0.515626,-0.935545 -0.515625,-1.763672 l 0,-2.783203 -1.042968,0 0,-1.5 1.042968,0 0,-1.863281 2.097657,0"
           id="path5745"
           style="font-weight:bold"
           inkscape:connector-curvature="0" />
        <path
           d="m 58.732422,93.4375 2.115234,0 0,2.267578 -2.115234,0 0,-2.267578 m 0,4.294922 2.115234,0 0,2.267578 -2.115234,0 0,-2.267578"
           id="path5747"
           style="font-weight:bold"
           inkscape:connector-curvature="0" />
        <path
           d="m 73.720703,91.925781 0,1.248047 c -0.398445,-0.371086 -0.824226,-0.64843 -1.277344,-0.832031 -0.449224,-0.183586 -0.92774,-0.275383 -1.435547,-0.275391 -1.000004,8e-6 -1.765628,0.306649 -2.296875,0.919922 -0.531252,0.609382 -0.796876,1.492193 -0.796875,2.648438 -10e-7,1.152347 0.265623,2.035158 0.796875,2.648437 0.531247,0.609376 1.296871,0.914063 2.296875,0.914063 0.507807,0 0.986323,-0.0918 1.435547,-0.275391 0.453118,-0.183592 0.878899,-0.460936 1.277344,-0.832031 l 0,1.236328 c -0.41407,0.28125 -0.853522,0.492188 -1.318359,0.632812 -0.460944,0.140626 -0.949224,0.210936 -1.464844,0.210936 -1.324222,0 -2.36719,-0.404295 -3.128906,-1.212889 -0.76172,-0.812498 -1.142579,-1.919919 -1.142578,-3.322265 -10e-7,-1.406245 0.380858,-2.513665 1.142578,-3.322266 0.761716,-0.812491 1.804684,-1.218741 3.128906,-1.21875 0.523432,9e-6 1.015619,0.07032 1.476562,0.210937 0.464837,0.136728 0.900384,0.343759 1.306641,0.621094"
           id="path5749"
           inkscape:connector-curvature="0" />
        <path
           d="m 78.056641,94.193359 c -0.578128,6e-6 -1.035159,0.226568 -1.371094,0.679688 -0.33594,0.449223 -0.503908,1.06641 -0.503906,1.851562 -2e-6,0.785159 0.166013,1.404299 0.498046,1.857422 0.335935,0.44922 0.794919,0.673829 1.376954,0.673828 0.574214,10e-7 1.029292,-0.226561 1.365234,-0.679687 0.335932,-0.453123 0.503901,-1.07031 0.503906,-1.851563 -5e-6,-0.777339 -0.167974,-1.392573 -0.503906,-1.845703 -0.335942,-0.457025 -0.79102,-0.685541 -1.365234,-0.685547 m 0,-0.914062 c 0.937495,7e-6 1.673822,0.304694 2.208984,0.914062 0.53515,0.609381 0.802728,1.45313 0.802734,2.53125 -6e-6,1.074221 -0.267584,1.91797 -0.802734,2.53125 -0.535162,0.609376 -1.271489,0.914061 -2.208984,0.914061 -0.941409,0 -1.67969,-0.304685 -2.214844,-0.914061 -0.531251,-0.61328 -0.796876,-1.457029 -0.796875,-2.53125 -10e-7,-1.07812 0.265624,-1.921869 0.796875,-2.53125 0.535154,-0.609368 1.273435,-0.914055 2.214844,-0.914062"
           id="path5751"
           inkscape:connector-curvature="0" />
        <path
           d="m 82.849609,90.882812 1.078125,0 0,9.117188 -1.078125,0 0,-9.117188"
           id="path5753"
           inkscape:connector-curvature="0" />
        <path
           d="m 88.720703,94.193359 c -0.578128,6e-6 -1.035159,0.226568 -1.371094,0.679688 -0.335939,0.449223 -0.503908,1.06641 -0.503906,1.851562 -2e-6,0.785159 0.166014,1.404299 0.498047,1.857422 0.335935,0.44922 0.794919,0.673829 1.376953,0.673828 0.574215,10e-7 1.029292,-0.226561 1.365234,-0.679687 0.335933,-0.453123 0.503901,-1.07031 0.503907,-1.851563 -6e-6,-0.777339 -0.167974,-1.392573 -0.503907,-1.845703 -0.335942,-0.457025 -0.791019,-0.685541 -1.365234,-0.685547 m 0,-0.914062 c 0.937496,7e-6 1.673823,0.304694 2.208984,0.914062 0.53515,0.609381 0.802728,1.45313 0.802735,2.53125 -7e-6,1.074221 -0.267585,1.91797 -0.802735,2.53125 -0.535161,0.609376 -1.271488,0.914061 -2.208984,0.914061 -0.941409,0 -1.679689,-0.304685 -2.214844,-0.914061 -0.531251,-0.61328 -0.796875,-1.457029 -0.796875,-2.53125 0,-1.07812 0.265624,-1.921869 0.796875,-2.53125 0.535155,-0.609368 1.273435,-0.914055 2.214844,-0.914062"
           id="path5755"
           inkscape:connector-curvature="0" />
        <path
           d="m 97.316406,94.445312 c -0.121098,-0.07031 -0.253911,-0.121088 -0.398437,-0.152343 -0.14063,-0.03515 -0.296879,-0.05273 -0.46875,-0.05273 -0.609379,6e-6 -1.078128,0.199225 -1.40625,0.597657 -0.324221,0.394536 -0.486331,0.962894 -0.486328,1.705078 l 0,3.457036 -1.083985,0 0,-6.562505 1.083985,0 0,1.019531 c 0.22656,-0.398431 0.521481,-0.693353 0.884765,-0.884765 0.363278,-0.195306 0.804684,-0.292962 1.324219,-0.292969 0.07421,7e-6 0.156245,0.0059 0.246094,0.01758 0.08984,0.0078 0.189448,0.02149 0.298828,0.04102 l 0.0059,1.107421"
           id="path5757"
           inkscape:connector-curvature="0" />
        <path
           d="m 106.08203,94.445312 c -0.1211,-0.07031 -0.25391,-0.121088 -0.39844,-0.152343 -0.14063,-0.03515 -0.29688,-0.05273 -0.46875,-0.05273 -0.60937,6e-6 -1.07812,0.199225 -1.40625,0.597657 -0.32422,0.394536 -0.48633,0.962894 -0.48632,1.705078 l 0,3.457036 -1.08399,0 0,-6.562505 1.08399,0 0,1.019531 c 0.22656,-0.398431 0.52148,-0.693353 0.88476,-0.884765 0.36328,-0.195306 0.80468,-0.292962 1.32422,-0.292969 0.0742,7e-6 0.15625,0.0059 0.24609,0.01758 0.0898,0.0078 0.18945,0.02149 0.29883,0.04102 l 0.006,1.107421"
           id="path5759"
           inkscape:connector-curvature="0" />
        <path
           d="m 112.58008,96.449219 0,0.527343 -4.95703,0 c 0.0469,0.74219 0.26953,1.308596 0.66797,1.699219 0.40234,0.38672 0.96093,0.580079 1.67578,0.580078 0.41405,10e-7 0.81445,-0.05078 1.20117,-0.152343 0.39062,-0.101562 0.77734,-0.253905 1.16016,-0.457032 l 0,1.019532 c -0.38673,0.164062 -0.78321,0.289062 -1.18946,0.375004 -0.40625,0.0859 -0.81836,0.1289 -1.23633,0.1289 -1.04687,0 -1.87695,-0.304685 -2.49023,-0.914061 -0.60938,-0.609373 -0.91406,-1.433591 -0.91406,-2.472656 0,-1.074214 0.28906,-1.925776 0.86718,-2.554687 0.58203,-0.632806 1.36524,-0.949212 2.34961,-0.949219 0.88281,7e-6 1.58008,0.285163 2.0918,0.855469 0.51562,0.566411 0.77343,1.337895 0.77344,2.314453 m -1.07813,-0.316407 c -0.008,-0.589839 -0.17383,-1.060541 -0.49804,-1.412109 -0.32032,-0.351557 -0.7461,-0.527338 -1.27735,-0.527344 -0.60156,6e-6 -1.08398,0.169928 -1.44726,0.509766 -0.35938,0.339849 -0.56641,0.818364 -0.6211,1.435547 l 3.84375,-0.0059"
           id="path5761"
           inkscape:connector-curvature="0" />
        <path
           d="m 118.64453,94.433594 0,-3.550782 1.07813,0 0,9.117188 -1.07813,0 0,-0.984375 c -0.22657,0.390626 -0.51368,0.681641 -0.86133,0.873047 -0.34375,0.187498 -0.75781,0.281248 -1.24218,0.281248 -0.79298,0 -1.43946,-0.316404 -1.93946,-0.949217 -0.49609,-0.632811 -0.74414,-1.464841 -0.74414,-2.496094 0,-1.031245 0.24805,-1.863276 0.74414,-2.496093 0.5,-0.632806 1.14648,-0.949212 1.93946,-0.949219 0.48437,7e-6 0.89843,0.09571 1.24218,0.287109 0.34765,0.187506 0.63476,0.476569 0.86133,0.867188 m -3.67383,2.291015 c 0,0.792972 0.16211,1.416018 0.48633,1.869141 0.32812,0.44922 0.77734,0.673829 1.34766,0.673828 0.57031,10e-7 1.01952,-0.224608 1.34765,-0.673828 0.32812,-0.453123 0.49219,-1.076169 0.49219,-1.869141 0,-0.792964 -0.16407,-1.414057 -0.49219,-1.863281 -0.32813,-0.453119 -0.77734,-0.679682 -1.34765,-0.679687 -0.57032,5e-6 -1.01954,0.226568 -1.34766,0.679687 -0.32422,0.449224 -0.48633,1.070317 -0.48633,1.863281"
           id="path5763"
           inkscape:connector-curvature="0" />
        <path
           d="m 122.21875,98.511719 1.23633,0 0,1.007812 -0.96094,1.874999 -0.75586,0 0.48047,-1.874999 0,-1.007812"
           id="path5765"
           inkscape:connector-curvature="0" />
        <path
           d="m 129.63086,91.251953 1.59375,0 3.87891,7.318359 0,-7.318359 1.14843,0 0,8.748047 -1.59375,0 -3.8789,-7.318359 0,7.318359 -1.14844,0 0,-8.748047"
           id="path5767"
           inkscape:connector-curvature="0" />
        <path
           d="m 138.44922,97.410156 0,-3.972656 1.07812,0 0,3.931641 c 0,0.621095 0.1211,1.087892 0.36328,1.40039 0.24219,0.308595 0.60547,0.462892 1.08985,0.462891 0.58203,10e-7 1.04101,-0.185546 1.37695,-0.556641 0.33984,-0.371092 0.50976,-0.876951 0.50977,-1.517578 l 0,-3.720703 1.07812,0 0,6.5625 -1.07812,0 0,-1.007813 c -0.26173,0.398439 -0.56641,0.695313 -0.91407,0.890625 -0.34375,0.191408 -0.74414,0.287108 -1.20117,0.287108 -0.75391,0 -1.32617,-0.234373 -1.71679,-0.703123 -0.39063,-0.468749 -0.58594,-1.154295 -0.58594,-2.056641"
           id="path5769"
           inkscape:connector-curvature="0" />
        <path
           d="m 151.28711,94.697266 c 0.26952,-0.48437 0.59179,-0.841791 0.9668,-1.072266 0.37499,-0.230462 0.81639,-0.345696 1.32421,-0.345703 0.68359,7e-6 1.21093,0.240241 1.58204,0.720703 0.37108,0.476568 0.55663,1.156255 0.55664,2.039062 l 0,3.960938 -1.08399,0 0,-3.925781 c -1e-5,-0.628902 -0.11134,-1.095698 -0.33398,-1.400391 -0.22267,-0.304682 -0.56251,-0.457025 -1.01953,-0.457031 -0.5586,6e-6 -1.00001,0.185552 -1.32422,0.55664 -0.32423,0.371099 -0.48634,0.876958 -0.48633,1.517579 l 0,3.708984 -1.08398,0 0,-3.925781 c -1e-5,-0.632808 -0.11134,-1.099605 -0.33399,-1.400391 -0.22266,-0.304682 -0.56641,-0.457025 -1.03125,-0.457031 -0.55078,6e-6 -0.98828,0.187505 -1.3125,0.5625 -0.32422,0.371098 -0.48633,0.875004 -0.48633,1.511719 l 0,3.708984 -1.08398,0 0,-6.5625 1.08398,0 0,1.019531 c 0.24609,-0.402338 0.54102,-0.699212 0.88477,-0.890625 0.34375,-0.191399 0.75195,-0.287102 1.22461,-0.287109 0.47656,7e-6 0.88085,0.1211 1.21289,0.363281 0.33593,0.242194 0.58398,0.593756 0.74414,1.054688"
           id="path5771"
           inkscape:connector-curvature="0" />
        <path
           d="m 162.56055,96.724609 c -1e-5,-0.792964 -0.16407,-1.414057 -0.49219,-1.863281 -0.32422,-0.453119 -0.77149,-0.679682 -1.3418,-0.679687 -0.57031,5e-6 -1.01953,0.226568 -1.34765,0.679687 -0.32422,0.449224 -0.48633,1.070317 -0.48633,1.863281 0,0.792972 0.16211,1.416018 0.48633,1.869141 0.32812,0.44922 0.77734,0.673829 1.34765,0.673828 0.57031,10e-7 1.01758,-0.224608 1.3418,-0.673828 0.32812,-0.453123 0.49218,-1.076169 0.49219,-1.869141 m -3.66797,-2.291015 c 0.22656,-0.390619 0.51171,-0.679682 0.85547,-0.867188 0.34765,-0.191399 0.76171,-0.287102 1.24218,-0.287109 0.79687,7e-6 1.44336,0.316413 1.93946,0.949219 0.49999,0.632817 0.74999,1.464848 0.75,2.496093 -1e-5,1.031253 -0.25001,1.863283 -0.75,2.496094 -0.4961,0.632813 -1.14259,0.949217 -1.93946,0.949217 -0.48047,0 -0.89453,-0.0937 -1.24218,-0.281248 -0.34376,-0.191406 -0.62891,-0.482421 -0.85547,-0.873047 l 0,0.984375 -1.08399,0 0,-9.117188 1.08399,0 0,3.550782"
           id="path5773"
           inkscape:connector-curvature="0" />
        <path
           d="m 171.08008,96.449219 0,0.527343 -4.95703,0 c 0.0469,0.74219 0.26953,1.308596 0.66797,1.699219 0.40234,0.38672 0.96093,0.580079 1.67578,0.580078 0.41405,10e-7 0.81445,-0.05078 1.20117,-0.152343 0.39062,-0.101562 0.77734,-0.253905 1.16015,-0.457032 l 0,1.019532 c -0.38672,0.164062 -0.7832,0.289062 -1.18945,0.375004 -0.40625,0.0859 -0.81836,0.1289 -1.23633,0.1289 -1.04687,0 -1.87695,-0.304685 -2.49023,-0.914061 -0.60938,-0.609373 -0.91406,-1.433591 -0.91406,-2.472656 0,-1.074214 0.28906,-1.925776 0.86718,-2.554687 0.58203,-0.632806 1.36524,-0.949212 2.34961,-0.949219 0.88281,7e-6 1.58008,0.285163 2.0918,0.855469 0.51562,0.566411 0.77343,1.337895 0.77344,2.314453 m -1.07813,-0.316407 c -0.008,-0.589839 -0.17383,-1.060541 -0.49804,-1.412109 -0.32032,-0.351557 -0.7461,-0.527338 -1.27735,-0.527344 -0.60156,6e-6 -1.08398,0.169928 -1.44726,0.509766 -0.35938,0.339849 -0.56641,0.818364 -0.6211,1.435547 l 3.84375,-0.0059"
           id="path5775"
           inkscape:connector-curvature="0" />
        <path
           d="m 176.62891,94.445312 c -0.1211,-0.07031 -0.25391,-0.121088 -0.39844,-0.152343 -0.14063,-0.03515 -0.29688,-0.05273 -0.46875,-0.05273 -0.60938,6e-6 -1.07813,0.199225 -1.40625,0.597657 -0.32422,0.394536 -0.48633,0.962894 -0.48633,1.705078 l 0,3.457036 -1.08398,0 0,-6.562505 1.08398,0 0,1.019531 c 0.22656,-0.398431 0.52148,-0.693353 0.88477,-0.884765 0.36327,-0.195306 0.80468,-0.292962 1.32421,-0.292969 0.0742,7e-6 0.15625,0.0059 0.2461,0.01758 0.0898,0.0078 0.18945,0.02149 0.29883,0.04102 l 0.006,1.107421"
           id="path5777"
           inkscape:connector-curvature="0" />
        <path
           d="m 181.94922,99.003906 1.93359,0 0,-6.673828 -2.10351,0.421875 0,-1.078125 2.09179,-0.421875 1.1836,0 0,7.751953 1.93359,0 0,0.996094 -5.03906,0 0,-0.996094"
           id="path5779"
           inkscape:connector-curvature="0" />
        <path
           d="m 190.38086,99.003906 4.13086,0 0,0.996094 -5.55469,0 0,-0.996094 c 0.44922,-0.464842 1.06055,-1.087888 1.83399,-1.86914 0.77734,-0.785153 1.26562,-1.291012 1.46484,-1.517579 0.3789,-0.425776 0.64257,-0.785151 0.79101,-1.078125 0.15234,-0.296869 0.22852,-0.587884 0.22852,-0.873046 0,-0.464837 -0.16407,-0.843743 -0.49219,-1.136719 -0.32422,-0.292961 -0.74805,-0.439445 -1.27148,-0.439453 -0.3711,8e-6 -0.76368,0.06446 -1.17774,0.193359 -0.41015,0.128914 -0.84961,0.324226 -1.31836,0.585938 l 0,-1.195313 c 0.47657,-0.191398 0.92188,-0.335929 1.33594,-0.433594 0.41406,-0.09765 0.79297,-0.146475 1.13672,-0.146484 0.90625,9e-6 1.6289,0.226571 2.16797,0.679687 0.53906,0.453133 0.80859,1.058601 0.80859,1.816407 0,0.359381 -0.0684,0.701177 -0.20507,1.02539 -0.13282,0.320318 -0.37696,0.699224 -0.73243,1.136719 -0.0977,0.113286 -0.4082,0.44141 -0.93164,0.984375 -0.52344,0.539065 -1.26172,1.294924 -2.21484,2.267578"
           id="path5781"
           inkscape:connector-curvature="0" />
        <path
           d="m 200.56445,95.283203 c 0.5664,0.121098 1.00781,0.373051 1.32422,0.755859 0.32031,0.382817 0.48046,0.855472 0.48047,1.417969 -10e-6,0.863283 -0.29688,1.531251 -0.89062,2.003906 -0.59376,0.472657 -1.43751,0.708983 -2.53125,0.708983 -0.36719,0 -0.7461,-0.0371 -1.13672,-0.11133 -0.38672,-0.07031 -0.78711,-0.177731 -1.20118,-0.322262 l 0,-1.142578 c 0.32813,0.191407 0.6875,0.335939 1.07813,0.433594 0.39062,0.09766 0.79883,0.146485 1.22461,0.146484 0.74218,10e-7 1.30664,-0.146483 1.69336,-0.439453 0.39062,-0.292967 0.58593,-0.718748 0.58594,-1.277344 -1e-5,-0.515622 -0.18165,-0.917965 -0.54493,-1.207031 -0.35938,-0.292965 -0.86133,-0.439449 -1.50586,-0.439453 l -1.01953,0 0,-0.972656 1.06641,0 c 0.58203,5e-6 1.02734,-0.115229 1.33594,-0.345704 0.30859,-0.234369 0.46288,-0.570306 0.46289,-1.007812 -1e-5,-0.449212 -0.16016,-0.792961 -0.48047,-1.03125 -0.31641,-0.24218 -0.77149,-0.363273 -1.36524,-0.363281 -0.32422,8e-6 -0.67187,0.03516 -1.04296,0.105468 -0.3711,0.07032 -0.7793,0.179696 -1.22461,0.328125 l 0,-1.054687 c 0.44921,-0.124991 0.86914,-0.218741 1.25976,-0.28125 0.39453,-0.06249 0.76562,-0.09374 1.11328,-0.09375 0.89844,9e-6 1.60937,0.205087 2.13282,0.615234 0.52343,0.406258 0.78515,0.957039 0.78515,1.652344 0,0.484381 -0.13868,0.894537 -0.41601,1.230469 -0.27735,0.332036 -0.67188,0.562505 -1.1836,0.691406"
           id="path5783"
           inkscape:connector-curvature="0" />
        <path
           d="m 207.84766,92.283203 -2.98829,4.669922 2.98829,0 0,-4.669922 m -0.31055,-1.03125 1.48828,0 0,5.701172 1.24805,0 0,0.984375 -1.24805,0 0,2.0625 -1.17773,0 0,-2.0625 -3.94922,0 0,-1.142578 3.63867,-5.542969"
           id="path5785"
           inkscape:connector-curvature="0" />
        <path
           d="m 212.22461,91.251953 4.64648,0 0,0.996094 -3.5625,0 0,2.144531 c 0.17188,-0.05859 0.34375,-0.101557 0.51563,-0.128906 0.17187,-0.03124 0.34375,-0.04687 0.51562,-0.04687 0.97656,6e-6 1.75,0.267584 2.32032,0.802734 0.5703,0.535161 0.85546,1.25977 0.85546,2.173828 0,0.941408 -0.29297,1.67383 -0.8789,2.197266 -0.58594,0.519531 -1.41211,0.7793 -2.47852,0.7793 -0.36719,0 -0.74219,-0.0312 -1.125,-0.0937 -0.3789,-0.0625 -0.77148,-0.156253 -1.17773,-0.281253 l 0,-1.189453 c 0.35156,0.191407 0.71484,0.333985 1.08984,0.427734 0.375,0.09375 0.77148,0.140626 1.18946,0.140625 0.67577,10e-7 1.21093,-0.177733 1.60546,-0.533203 0.39453,-0.355467 0.5918,-0.837888 0.5918,-1.447266 0,-0.609371 -0.19727,-1.091793 -0.5918,-1.447265 -0.39453,-0.355464 -0.92969,-0.533199 -1.60546,-0.533203 -0.31641,4e-6 -0.63282,0.03516 -0.94922,0.105468 -0.31251,0.07032 -0.63282,0.179692 -0.96094,0.328125 l 0,-4.394531"
           id="path5787"
           inkscape:connector-curvature="0" />
        <path
           d="m 222.53125,95.154297 c -0.53125,5e-6 -0.95313,0.181645 -1.26563,0.544922 -0.30859,0.363285 -0.46289,0.861331 -0.46289,1.49414 0,0.628909 0.1543,1.126955 0.46289,1.494141 0.3125,0.363282 0.73438,0.544923 1.26563,0.544922 0.53125,10e-7 0.95117,-0.18164 1.25977,-0.544922 0.31249,-0.367186 0.46874,-0.865232 0.46875,-1.494141 -1e-5,-0.632809 -0.15626,-1.130855 -0.46875,-1.49414 -0.3086,-0.363277 -0.72852,-0.544917 -1.25977,-0.544922 m 2.34961,-3.708985 0,1.078125 c -0.29688,-0.140617 -0.59766,-0.248039 -0.90234,-0.322265 -0.30079,-0.07421 -0.59962,-0.11132 -0.89649,-0.111328 -0.78125,8e-6 -1.37891,0.263679 -1.79297,0.791015 -0.41016,0.527351 -0.64453,1.324225 -0.70312,2.390625 0.23046,-0.339838 0.51953,-0.599604 0.86718,-0.779297 0.34766,-0.183588 0.73047,-0.275384 1.14844,-0.27539 0.8789,6e-6 1.57226,0.267584 2.08008,0.802734 0.51171,0.531255 0.76757,1.255863 0.76758,2.173828 -1e-5,0.89844 -0.26563,1.619142 -0.79688,2.16211 -0.53125,0.542969 -1.23828,0.814451 -2.12109,0.814451 -1.01172,0 -1.78516,-0.386717 -2.32031,-1.160154 -0.53516,-0.777342 -0.80274,-1.902341 -0.80274,-3.375 0,-1.382807 0.32813,-2.484369 0.98438,-3.304688 0.65625,-0.82421 1.5371,-1.236319 2.64258,-1.236328 0.29687,9e-6 0.59569,0.02931 0.89648,0.08789 0.30468,0.0586 0.62109,0.146493 0.94922,0.263671"
           id="path5789"
           inkscape:connector-curvature="0" />
        <path
           d="m 227.61719,98.511719 1.23633,0 0,1.007812 -0.96094,1.874999 -0.75586,0 0.48047,-1.874999 0,-1.007812"
           id="path5791"
           inkscape:connector-curvature="0" />
        <path
           d="m 235.0293,91.251953 5.02734,0 0,0.996094 -3.84375,0 0,2.578125 3.46875,0 0,0.996094 -3.46875,0 0,4.177734 -1.18359,0 0,-8.748047"
           id="path5793"
           inkscape:connector-curvature="0" />
        <path
           d="m 241.87305,90.882812 1.07812,0 0,9.117188 -1.07812,0 0,-9.117188"
           id="path5795"
           inkscape:connector-curvature="0" />
        <path
           d="m 247.74414,94.193359 c -0.57813,6e-6 -1.03516,0.226568 -1.37109,0.679688 -0.33594,0.449223 -0.50391,1.06641 -0.50391,1.851562 0,0.785159 0.16601,1.404299 0.49805,1.857422 0.33593,0.44922 0.79492,0.673829 1.37695,0.673828 0.57422,10e-7 1.02929,-0.226561 1.36523,-0.679687 0.33594,-0.453123 0.50391,-1.07031 0.50391,-1.851563 0,-0.777339 -0.16797,-1.392573 -0.50391,-1.845703 -0.33594,-0.457025 -0.79101,-0.685541 -1.36523,-0.685547 m 0,-0.914062 c 0.9375,7e-6 1.67382,0.304694 2.20898,0.914062 0.53515,0.609381 0.80273,1.45313 0.80274,2.53125 -1e-5,1.074221 -0.26759,1.91797 -0.80274,2.53125 -0.53516,0.609376 -1.27148,0.914061 -2.20898,0.914061 -0.94141,0 -1.67969,-0.304685 -2.21484,-0.914061 -0.53125,-0.61328 -0.79688,-1.457029 -0.79688,-2.53125 0,-1.07812 0.26563,-1.921869 0.79688,-2.53125 0.53515,-0.609368 1.27343,-0.914055 2.21484,-0.914062"
           id="path5797"
           inkscape:connector-curvature="0" />
        <path
           d="m 255.51953,96.701172 c -0.8711,3e-6 -1.47461,0.09961 -1.81055,0.298828 -0.33594,0.199222 -0.5039,0.539065 -0.5039,1.019531 0,0.382814 0.125,0.687502 0.375,0.914063 0.2539,0.222657 0.59765,0.333985 1.03125,0.333984 0.59765,10e-7 1.07617,-0.210936 1.43554,-0.632812 0.36328,-0.42578 0.54492,-0.990232 0.54493,-1.69336 l 0,-0.240234 -1.07227,0 m 2.15039,-0.445313 0,3.744141 -1.07812,0 0,-0.996094 c -0.2461,0.398438 -0.55274,0.69336 -0.91993,0.884766 -0.36719,0.187498 -0.8164,0.281248 -1.34765,0.281248 -0.67188,0 -1.20703,-0.187498 -1.60547,-0.562498 -0.39453,-0.378906 -0.5918,-0.884764 -0.5918,-1.517578 0,-0.738279 0.2461,-1.294919 0.73828,-1.669922 0.4961,-0.374996 1.23438,-0.562496 2.21485,-0.5625 l 1.51172,0 0,-0.105469 c -10e-6,-0.496089 -0.16407,-0.878901 -0.49219,-1.148437 -0.32422,-0.273432 -0.78125,-0.410151 -1.37109,-0.410157 -0.37501,6e-6 -0.74024,0.04493 -1.09571,0.134766 -0.35547,0.08985 -0.69726,0.224615 -1.02539,0.404297 l 0,-0.996094 c 0.39453,-0.152337 0.77734,-0.265618 1.14844,-0.339844 0.37109,-0.07812 0.73242,-0.11718 1.08398,-0.117187 0.94922,7e-6 1.6582,0.2461 2.12696,0.738281 0.46874,0.492193 0.70312,1.238286 0.70312,2.238281"
           id="path5799"
           inkscape:connector-curvature="0" />
        <path
           d="m 260.98633,91.574219 0,1.863281 2.2207,0 0,0.837891 -2.2207,0 0,3.5625 c 0,0.535158 0.0723,0.878907 0.21679,1.03125 0.14844,0.152344 0.44727,0.228516 0.89649,0.228515 l 1.10742,0 0,0.902344 -1.10742,0 c -0.83203,0 -1.40625,-0.154297 -1.72266,-0.462891 -0.3164,-0.312499 -0.47461,-0.878905 -0.47461,-1.699218 l 0,-3.5625 -0.79101,0 0,-0.837891 0.79101,0 0,-1.863281 1.08399,0"
           id="path5801"
           inkscape:connector-curvature="0" />
        <path
           d="m 272.18945,95.283203 c 0.5664,0.121098 1.00781,0.373051 1.32422,0.755859 0.32031,0.382817 0.48046,0.855472 0.48047,1.417969 -1e-5,0.863283 -0.29688,1.531251 -0.89062,2.003906 -0.59376,0.472657 -1.43751,0.708983 -2.53125,0.708983 -0.36719,0 -0.7461,-0.0371 -1.13672,-0.11133 -0.38672,-0.07031 -0.78711,-0.177731 -1.20118,-0.322262 l 0,-1.142578 c 0.32813,0.191407 0.6875,0.335939 1.07813,0.433594 0.39062,0.09766 0.79883,0.146485 1.22461,0.146484 0.74218,10e-7 1.30664,-0.146483 1.69336,-0.439453 0.39062,-0.292967 0.58593,-0.718748 0.58594,-1.277344 -1e-5,-0.515622 -0.18165,-0.917965 -0.54493,-1.207031 -0.35938,-0.292965 -0.86133,-0.439449 -1.50586,-0.439453 l -1.01953,0 0,-0.972656 1.06641,0 c 0.58203,5e-6 1.02734,-0.115229 1.33594,-0.345704 0.30859,-0.234369 0.46288,-0.570306 0.46289,-1.007812 -1e-5,-0.449212 -0.16016,-0.792961 -0.48047,-1.03125 -0.31641,-0.24218 -0.77149,-0.363273 -1.36524,-0.363281 -0.32422,8e-6 -0.67187,0.03516 -1.04296,0.105468 -0.3711,0.07032 -0.7793,0.179696 -1.22461,0.328125 l 0,-1.054687 c 0.44921,-0.124991 0.86914,-0.218741 1.25976,-0.28125 0.39453,-0.06249 0.76562,-0.09374 1.11328,-0.09375 0.89844,9e-6 1.60937,0.205087 2.13282,0.615234 0.52343,0.406258 0.78515,0.957039 0.78515,1.652344 0,0.484381 -0.13868,0.894537 -0.41601,1.230469 -0.27735,0.332036 -0.67188,0.562505 -1.1836,0.691406"
           id="path5803"
           inkscape:connector-curvature="0" />
        <path
           d="m 276.2207,98.511719 1.23633,0 0,1.488281 -1.23633,0 0,-1.488281"
           id="path5805"
           inkscape:connector-curvature="0" />
        <path
           d="m 280.24609,99.003906 1.9336,0 0,-6.673828 -2.10352,0.421875 0,-1.078125 2.0918,-0.421875 1.18359,0 0,7.751953 1.9336,0 0,0.996094 -5.03907,0 0,-0.996094"
           id="path5807"
           inkscape:connector-curvature="0" />
        <path
           d="m 290.91016,92.283203 -2.98829,4.669922 2.98829,0 0,-4.669922 m -0.31055,-1.03125 1.48828,0 0,5.701172 1.24805,0 0,0.984375 -1.24805,0 0,2.0625 -1.17773,0 0,-2.0625 -3.94922,0 0,-1.142578 3.63867,-5.542969"
           id="path5809"
           inkscape:connector-curvature="0" />
      </g>
    </g>
    <g
       inkscape:groupmode="layer"
       id="layer4"
       inkscape:label="arrows"
       style="display:none">
      <path
         d="m 376.79424,48.212557 0,-10.565566 -218.259,0 0,9.441938"
         id="path2937"
         style="fill:none;stroke:#000000;stroke-width:0.92931002px;stroke-linecap:butt;stroke-linejoin:miter;stroke-opacity:1;marker-end:url(#Arrow1Mend)"
         sodipodi:nodetypes="cccc"
         inkscape:connector-curvature="0" />
      <path
         d="m 435.77801,47.555032 0,-24.722336 -199.07493,0 0,10.099577"
         id="path4159"
         style="fill:none;stroke:#000000;stroke-width:1.12957001px;stroke-linecap:butt;stroke-linejoin:miter;stroke-opacity:1;marker-end:url(#Arrow1Mend)"
         sodipodi:nodetypes="cccc"
         inkscape:connector-curvature="0" />
      <path
         d="m 487.06585,46.447711 0,-37.788245 -168.03346,0 0,9.674032"
         id="path4345"
         style="fill:none;stroke:#000000;stroke-width:1.11462998px;stroke-linecap:butt;stroke-linejoin:miter;stroke-opacity:1;marker-start:none;marker-mid:none;marker-end:url(#Arrow1Mend)"
         sodipodi:nodetypes="cccc"
         inkscape:connector-curvature="0" />
      <path
         d="M 116.45534,65.456464 84.683813,98.90018"
         id="path4899"
         style="fill:none;stroke:#000000;stroke-width:1px;stroke-linecap:butt;stroke-linejoin:miter;stroke-opacity:1;marker-end:url(#Arrow1Mend)"
         inkscape:connector-curvature="0" />
      <path
         d="M 151.01384,64.376387 114.78315,98.93489"
         id="path4901"
         style="fill:none;stroke:#000000;stroke-width:1px;stroke-linecap:butt;stroke-linejoin:miter;stroke-opacity:1;marker-end:url(#Arrow1Mend)"
         inkscape:connector-curvature="0" />
      <path
         d="M 193.93327,64.387408 156.58779,98.94591"
         id="path4903"
         style="fill:none;stroke:#000000;stroke-width:1px;stroke-linecap:butt;stroke-linejoin:miter;stroke-opacity:1;marker-end:url(#Arrow1Mend)"
         inkscape:connector-curvature="0" />
      <path
         d="m 231.83615,65.368571 -23.968,33.443709"
         id="path4905"
         style="fill:none;stroke:#000000;stroke-width:1px;stroke-linecap:butt;stroke-linejoin:miter;stroke-opacity:1;marker-end:url(#Arrow1Mend)"
         inkscape:connector-curvature="0" />
      <path
         d="M 270.29642,68.138641 249.6728,98.79538"
         id="path4907"
         style="fill:none;stroke:#000000;stroke-width:1px;stroke-linecap:butt;stroke-linejoin:miter;stroke-opacity:1;marker-end:url(#Arrow1Mend)"
         inkscape:connector-curvature="0" />
      <path
         d="M 313.77325,65.969495 286.46088,98.85581"
         id="path4909"
         style="fill:none;stroke:#000000;stroke-width:1px;stroke-linecap:butt;stroke-linejoin:miter;stroke-opacity:1;marker-end:url(#Arrow1Mend)"
         inkscape:connector-curvature="0" />
    </g>
  </g>
  <g
     inkscape:groupmode="layer"
     id="layer5"
     inkscape:label="full text"
     style="display:inline">
    <g
       inkscape:groupmode="layer"
       id="layer6"
       inkscape:label="text"
       style="display:inline">
      <text
         xml:space="preserve"
         style="font-size:12px;font-style:normal;font-variant:normal;font-weight:normal;font-stretch:normal;text-align:start;text-anchor:start;fill:#000080;fill-opacity:0.69019608;stroke:none;display:inline;font-family:DejaVu Sans;-inkscape-font-specification:DejaVu Sans"
         x="9.4023447"
         y="62.471672"
         id="text3358"><tspan
           sodipodi:role="line"
           id="tspan3360"
           x="9.4023447"
           y="62.471672"
           style="fill:#000000;fill-opacity:1;-inkscape-font-specification:DejaVu Sans Mono;font-family:DejaVu Sans Mono;font-weight:normal;font-style:normal;font-stretch:normal;font-variant:normal"><tspan
   style="font-weight:bold;-inkscape-font-specification:DejaVu Sans Bold;font-family:DejaVu Sans;font-style:normal;font-stretch:normal;font-variant:normal"
   id="tspan4526">Input:</tspan><tspan
   style="fill:#000080;fill-opacity:1;-inkscape-font-specification:DejaVu Sans Mono;font-family:DejaVu Sans Mono;font-weight:normal;font-style:normal;font-stretch:normal;font-variant:normal"
   id="tspan4138"> printf</tspan><tspan
   style="fill:#008000;-inkscape-font-specification:DejaVu Sans Mono;font-family:DejaVu Sans Mono;font-weight:normal;font-style:normal;font-stretch:normal;font-variant:normal"
   id="tspan4142">(<tspan
   style="fill:#800000;-inkscape-font-specification:DejaVu Sans Mono;font-family:DejaVu Sans Mono;font-weight:normal;font-style:normal;font-stretch:normal;font-variant:normal"
   id="tspan4148">&quot;</tspan></tspan><tspan
   style="fill:#800000;-inkscape-font-specification:DejaVu Sans Mono;font-family:DejaVu Sans Mono;font-weight:normal;font-style:normal;font-stretch:normal;font-variant:normal"
   id="tspan4140">Color %s, Number %d, Float %3.2f&quot;</tspan>, &quot;red&quot;, 123456, 3.14<tspan
   style="fill:#008000;-inkscape-font-specification:DejaVu Sans Mono;font-family:DejaVu Sans Mono;font-weight:normal;font-style:normal;font-stretch:normal;font-variant:normal"
   id="tspan4144">)</tspan>;</tspan></text>
      <text
         xml:space="preserve"
         style="font-size:12px;font-style:normal;font-variant:normal;font-weight:normal;font-stretch:normal;text-align:start;text-anchor:start;fill:#000000;fill-opacity:1;stroke:none;display:inline;font-family:DejaVu Sans;-inkscape-font-specification:DejaVu Sans"
         x="9.4023438"
         y="112.5039"
         id="text4150"><tspan
           sodipodi:role="line"
           id="tspan4152"
           x="9.4023438"
           y="112.5039"><tspan
   style="font-weight:bold;-inkscape-font-specification:Andale Mono Bold"
   id="tspan4154">Output:</tspan> Color red, Number 123456, Float 3.14</tspan></text>
    </g>
    <g
       inkscape:groupmode="layer"
       id="layer7"
       inkscape:label="arrows">
      <path
         d="m 384.79424,47.330133 0,-9.683143 -218.259,0 0,9.683143"
         id="path2937-5"
         style="fill:none;stroke:#000000;stroke-width:0.92931002px;stroke-linecap:butt;stroke-linejoin:miter;stroke-opacity:1;marker-end:url(#Arrow1Mend);display:inline"
         sodipodi:nodetypes="cccc"
         inkscape:connector-curvature="0" />
      <path
         d="m 439.77801,47.330133 l 0,-24.497438 l -195.07493,0 l 0,10.099577"
         id="path4159-2"
         style="fill:none;stroke:#000000;stroke-width:1.12957001px;stroke-linecap:butt;stroke-linejoin:miter;stroke-opacity:1;marker-end:url(#Arrow1Mend);display:inline"
         sodipodi:nodetypes="cccc"
         inkscape:connector-curvature="0" />
      <path
         d="m 489.06585,47.330133 l 0,-38.670668 l -162.03346,0 l 0,9.674032"
         id="path4345-7"
         style="fill:none;stroke:#000000;stroke-width:1.11462998px;stroke-linecap:butt;stroke-linejoin:miter;stroke-opacity:1;marker-start:none;marker-mid:none;marker-end:url(#Arrow1Mend);display:inline"
         sodipodi:nodetypes="cccc"
         inkscape:connector-curvature="0" />
      <path
         d="M 124.45534,66.257513 L 92.683813,98.986896"
         id="path4899-7"
         style="fill:none;stroke:#000000;stroke-width:1px;stroke-linecap:butt;stroke-linejoin:miter;stroke-opacity:1;marker-end:url(#Arrow1Mend);display:inline"
         inkscape:connector-curvature="0"
         sodipodi:nodetypes="cc" />
      <path
         d="M 159.01384,66.257513 L 118.44763,98.986896"
         id="path4901-4"
         style="fill:none;stroke:#000000;stroke-width:1px;stroke-linecap:butt;stroke-linejoin:miter;stroke-opacity:1;marker-end:url(#Arrow1Mend);display:inline"
         inkscape:connector-curvature="0"
         sodipodi:nodetypes="cc" />
      <path
         d="M 201.93327,66.257513 L 163.40538,98.986896"
         id="path4903-6"
         style="fill:none;stroke:#000000;stroke-width:1px;stroke-linecap:butt;stroke-linejoin:miter;stroke-opacity:1;marker-end:url(#Arrow1Mend);display:inline"
         inkscape:connector-curvature="0"
         sodipodi:nodetypes="cc" />
      <path
         d="M 239.83615,66.257513 L 206.80298,98.986896"
         id="path4905-4"
         style="fill:none;stroke:#000000;stroke-width:1px;stroke-linecap:butt;stroke-linejoin:miter;stroke-opacity:1;marker-end:url(#Arrow1Mend);display:inline"
         inkscape:connector-curvature="0"
         sodipodi:nodetypes="cc" />
      <path
         d="M 278.29642,66.257513 L 254.5197,98.986896"
         id="path4907-7"
         style="fill:none;stroke:#000000;stroke-width:1px;stroke-linecap:butt;stroke-linejoin:miter;stroke-opacity:1;marker-end:url(#Arrow1Mend);display:inline"
         inkscape:connector-curvature="0"
         sodipodi:nodetypes="cc" />
      <path
         d="M 321.77325,66.257513 L 288.15467,98.986896"
         id="path4909-3"
         style="fill:none;stroke:#000000;stroke-width:1px;stroke-linecap:butt;stroke-linejoin:miter;stroke-opacity:1;marker-end:url(#Arrow1Mend);display:inline"
         inkscape:connector-curvature="0"
         sodipodi:nodetypes="cc" />
    </g>
  </g>
</svg>
